<svg width="98" height="40" viewBox="0 0 98 40" fill="none" xmlns="http://www.w3.org/2000/svg">
<g id="Apple_Pay_logo" clip-path="url(#clip0_1031_5673)">
<path id="XMLID_34_" d="M18.3892 5.15699C17.2525 6.50809 15.4337 7.57374 13.615 7.4215C13.3876 5.59467 14.278 3.65366 15.32 2.4548C16.4568 1.06565 18.446 0.076118 20.0564 0C20.2458 1.90295 19.507 3.76784 18.3892 5.15699ZM20.0374 7.78306C17.404 7.63083 15.1495 9.28639 13.8991 9.28639C12.6298 9.28639 10.7163 7.85918 8.63235 7.89724C5.92317 7.9353 3.40344 9.47669 2.02043 11.9315C-0.821366 16.8411 1.28156 24.1104 4.02863 28.1066C5.37375 30.0856 6.9841 32.255 9.10598 32.1789C11.1142 32.1028 11.9099 30.8658 14.3349 30.8658C16.7788 30.8658 17.4798 32.1789 19.6017 32.1408C21.7993 32.1028 23.1823 30.1618 24.5275 28.1827C26.062 25.9372 26.6872 23.7488 26.7251 23.6346C26.6872 23.5966 22.4814 21.9791 22.4435 17.1075C22.4056 13.0352 25.7589 11.0942 25.9105 10.98C24.0159 8.16365 21.0605 7.85918 20.0374 7.78306ZM35.2505 2.26451V31.9315H39.8353V21.7888H46.182C51.9792 21.7888 56.0525 17.7926 56.0525 12.0076C56.0525 6.22265 52.055 2.26451 46.3335 2.26451H35.2505ZM39.8353 6.14653H45.121C49.0995 6.14653 51.373 8.27783 51.373 12.0266C51.373 15.7755 49.0995 17.9258 45.1021 17.9258H39.8353V6.14653ZM64.4263 32.1599C67.306 32.1599 69.9773 30.6946 71.1898 28.373H71.2845V31.9315H75.5283V17.1646C75.5283 12.883 72.1181 10.1237 66.8702 10.1237C62.0013 10.1237 58.4017 12.921 58.2691 16.765H62.3991C62.7402 14.9382 64.4263 13.7393 66.7376 13.7393C69.5415 13.7393 71.114 15.0523 71.114 17.4691V19.1056L65.3925 19.4481C60.0689 19.7716 57.1892 21.96 57.1892 25.7659C57.1892 29.6099 60.1636 32.1599 64.4263 32.1599ZM65.6577 28.6394C63.2138 28.6394 61.6603 27.4596 61.6603 25.6518C61.6603 23.7869 63.157 22.7022 66.0177 22.5309L71.114 22.2074V23.882C71.114 26.6603 68.7648 28.6394 65.6577 28.6394ZM81.1929 40C85.664 40 87.7669 38.2873 89.6046 33.0923L97.6564 10.4091H92.9958L87.5964 27.9353H87.5017L82.1023 10.4091H77.3091L85.0767 32.0076L84.6599 33.3206C83.9589 35.5471 82.8222 36.4034 80.795 36.4034C80.4351 36.4034 79.7341 36.3654 79.4499 36.3273V39.8858C79.7152 39.9619 80.8519 40 81.1929 40Z" fill="#959595"/>
</g>
<defs>
<clipPath id="clip0_1031_5673">
<rect width="97" height="40" fill="white" transform="translate(0.65625)"/>
</clipPath>
</defs>
</svg>
