<svg width="154" height="36" viewBox="0 0 154 36" fill="none" xmlns="http://www.w3.org/2000/svg">
<g clip-path="url(#clip0_1031_5694)">
<path d="M28.2935 6.50403H6.68335V26.145H28.2935V6.50403Z" fill="white"/>
<path fill-rule="evenodd" clip-rule="evenodd" d="M34.9884 18C34.9884 27.6523 27.1587 35.4768 17.5001 35.4768C7.84152 35.4768 0.0117188 27.6523 0.0117188 18C0.0117188 8.34791 7.84152 0.523315 17.5001 0.523315C27.1587 0.523315 34.9884 8.34791 34.9884 18ZM12.5444 24.9549H9.15038C8.43719 24.9549 8.08491 24.9549 7.87012 24.8176C7.63811 24.6673 7.49634 24.4183 7.47915 24.1434C7.46625 23.8902 7.64242 23.581 7.9947 22.9628L16.3749 8.20132C16.7315 7.57449 16.9119 7.26107 17.1396 7.14516C17.3845 7.02066 17.6767 7.02066 17.9215 7.14516C18.1492 7.26107 18.3297 7.57449 18.6863 8.20132L20.4091 11.2067L20.4178 11.222C20.803 11.8945 20.9983 12.2355 21.0836 12.5934C21.1781 12.9841 21.1781 13.3963 21.0836 13.787C20.9976 14.1476 20.8043 14.4911 20.4133 15.1737L16.0114 22.9499L16 22.9698C15.6124 23.6478 15.4159 23.9915 15.1436 24.2507C14.8472 24.5342 14.4906 24.7401 14.0996 24.8562C13.743 24.9549 13.3435 24.9549 12.5444 24.9549ZM21.1153 24.9549H25.9786C26.696 24.9549 27.057 24.9549 27.2719 24.8134C27.5038 24.6631 27.6498 24.4097 27.6629 24.135C27.6752 23.89 27.5029 23.5928 27.1652 23.0105C27.1536 22.9907 27.142 22.9705 27.1301 22.95L24.6941 18.7854L24.6663 18.7386C24.324 18.1601 24.1512 17.868 23.9293 17.755C23.6846 17.6305 23.3965 17.6305 23.1518 17.755C22.9283 17.871 22.7479 18.1758 22.3913 18.7897L19.964 22.9543L19.9556 22.9686C19.6003 23.5816 19.4227 23.8879 19.4355 24.1392C19.4527 24.4141 19.5945 24.6673 19.8265 24.8176C20.037 24.9549 20.3979 24.9549 21.1153 24.9549Z" fill="#959595"/>
</g>
<g clip-path="url(#clip1_1031_5694)">
<path d="M47.4765 12.7652H49.0604L53.495 23.1899H51.4007L50.4426 20.8032H45.9791L45.0498 23.1899H43L47.4765 12.7652ZM49.8012 19.2147L48.2174 14.9742L46.6048 19.2147H49.8038H49.8012ZM59.5004 23.1899H61.0842L65.244 12.7652H63.2675L60.3748 20.6441L57.5684 12.7652H55.461L59.503 23.1899H59.5004ZM71.7886 12.7652H73.3724L77.8045 23.1899H75.7102L74.7521 20.8032H70.2886L69.3592 23.1899H67.3095L71.7886 12.7652ZM74.1133 19.2147L72.5295 14.9742L70.9169 19.2147H74.1159H74.1133ZM81.8569 23.1899H88.0639V21.5113H83.6895V12.7652H81.8569V23.1899ZM95.6322 12.7652H97.216L101.648 23.1899H99.5537L98.5956 20.8032H94.1321L93.2028 23.1899H91.153L95.6322 12.7652ZM97.9568 19.2147L96.373 14.9742L94.7604 19.2147H97.9594H97.9568ZM105.701 23.1899H107.533V15.1944H107.562L112.651 23.1899H114.976V12.7652H113.143V20.5115H113.114L108.13 12.7652H105.703V23.1899H105.701ZM128.667 14.1495C128.154 13.5502 127.596 13.1285 126.994 12.8819C126.403 12.6273 125.758 12.5 125.062 12.5C124.266 12.5 123.536 12.6326 122.868 12.8978C122.209 13.1524 121.638 13.521 121.154 14.001C120.68 14.481 120.305 15.0671 120.033 15.7539C119.761 16.4302 119.627 17.186 119.627 18.0213C119.627 18.8567 119.764 19.578 120.033 20.2436C120.305 20.9119 120.677 21.4847 121.154 21.9674C121.638 22.4394 122.209 22.808 122.868 23.0706C123.536 23.3252 124.269 23.4525 125.062 23.4525C125.855 23.4525 126.531 23.304 127.198 23.0096C127.869 22.7152 128.434 22.2432 128.9 21.5961L127.39 20.5062C127.049 20.949 126.683 21.2726 126.285 21.4768C125.897 21.673 125.494 21.7712 125.078 21.7712C124.544 21.7712 124.06 21.673 123.625 21.4768C123.198 21.2806 122.832 21.01 122.52 20.6679C122.209 20.3232 121.968 19.9174 121.793 19.4454C121.628 18.9734 121.546 18.4589 121.546 17.8993C121.546 17.3796 121.628 16.8942 121.793 16.4408C121.968 15.9899 122.209 15.5975 122.52 15.2633C122.832 14.9186 123.198 14.6534 123.625 14.4677C124.062 14.2715 124.546 14.1734 125.078 14.1734C125.437 14.1734 125.79 14.2423 126.138 14.3802C126.497 14.5181 126.866 14.7913 127.243 15.205L128.667 14.1442V14.1495ZM133.036 23.1899H134.869V18.5968H139.68V23.1899H141.513V12.7652H139.68V16.9181H134.869V12.7652H133.036V23.1899ZM146.717 23.1899H153.796V21.5113H148.547V18.6843H153.272V17.0056H148.547V14.4439H153.534V12.7652H146.717V23.1899Z" fill="white"/>
</g>
<defs>
<clipPath id="clip0_1031_5694">
<rect width="35" height="35" fill="white" transform="translate(0 0.5)"/>
</clipPath>
<clipPath id="clip1_1031_5694">
<rect width="111" height="11" fill="white" transform="translate(43 12.5)"/>
</clipPath>
</defs>
</svg>
