<svg width="79" height="56" viewBox="0 0 79 56" fill="none" xmlns="http://www.w3.org/2000/svg">
<g id="Bancontact_logo 2" clip-path="url(#clip0_1972_9095)">
<g id="Group">
<g id="Group_2">
<path id="Vector" d="M79 51.1896C79 53.8377 76.8439 56 74.2033 56H4.79669C2.15609 56 0 53.8377 0 51.1896V4.81041C0 2.16226 2.15609 0 4.79669 0H74.1791C76.8197 0 78.9758 2.16226 78.9758 4.81041V51.1896H79Z" fill="white"/>
</g>
<g id="Group_3">
<path id="Vector_2" d="M63.4713 15.646H60.6127H47.3855H44.5268L42.5888 17.8325L36.3386 24.9024L34.4005 27.0889H31.5419H18.5569H15.6983L17.5879 24.8781L18.4842 23.8334L20.3738 21.6226H17.5152H13.8329H11.7737C10.199 21.6226 8.91507 22.9588 8.91507 24.5623V30.2473V30.7818C8.91507 32.4096 10.199 33.7215 11.7737 33.7215H12.5732H42.613H44.7691C46.3438 33.7215 48.4999 32.7254 49.5416 31.5349L54.5321 25.8499L63.4713 15.646Z" fill="#004E91"/>
<path id="Vector_3" d="M67.2748 9.01343C68.8495 9.01343 70.1334 10.3497 70.1334 11.9531V18.1727C70.1334 19.8004 68.8495 21.1123 67.2748 21.1123H65.7243H61.5333H58.6747L60.5885 18.9258L61.5333 17.8325L63.4471 15.646H44.5026L34.4005 27.0646H15.5771L29.0709 11.7588L29.5796 11.1757C30.6455 9.98523 32.8016 8.98914 34.3763 8.98914H35.0304H67.2748V9.01343Z" fill="#FFDD00"/>
</g>
<path id="Vector_4" d="M70.1334 46.7436V45.8447C70.1334 45.7232 70.0607 45.6503 69.8911 45.6503H69.3097C69.1402 45.6503 69.019 45.626 68.9948 45.5532C68.9463 45.4803 68.9463 45.3345 68.9463 45.0916V41.6903H69.8911C69.9638 41.6903 70.0123 41.666 70.0607 41.6174C70.1092 41.5688 70.1334 41.5202 70.1334 41.4473V40.4998C70.1334 40.4269 70.1092 40.3783 70.0607 40.3297C70.0123 40.2811 69.9638 40.2568 69.8911 40.2568H68.9463V39.0178C68.9463 38.9449 68.9221 38.8963 68.8979 38.872C68.8494 38.8477 68.801 38.8234 68.7525 38.8234H68.7283L67.3232 39.0664C67.2505 39.0907 67.2021 39.115 67.1536 39.1393C67.1052 39.1879 67.081 39.2365 67.081 39.285V40.2326H66.1362C66.0635 40.2326 66.015 40.2568 65.9666 40.3054C65.9181 40.354 65.8939 40.4026 65.8939 40.4755V41.2529C65.8939 41.3258 65.9181 41.3744 65.9666 41.3987C66.015 41.4473 66.0635 41.4716 66.1362 41.4959L67.081 41.6417V45.043C67.081 45.456 67.1294 45.7961 67.2021 46.0634C67.299 46.3306 67.4201 46.525 67.5655 46.6707C67.7351 46.8165 67.9289 46.9137 68.1711 46.9623C68.4134 47.0109 68.7041 47.0352 69.019 47.0352C69.1886 47.0352 69.334 47.0352 69.4793 47.0109C69.6004 46.9866 69.77 46.9623 69.9396 46.938C70.0607 46.938 70.1334 46.8651 70.1334 46.7436ZM65.0945 46.6221V45.5775C65.0945 45.5046 65.0702 45.456 65.0218 45.4317C64.9733 45.4074 64.9249 45.3831 64.8764 45.3831H64.8522C64.6342 45.4074 64.4161 45.4317 64.2223 45.4317C64.0285 45.456 63.762 45.456 63.4229 45.456C63.3018 45.456 63.1564 45.4317 63.0595 45.3831C62.9384 45.3345 62.8415 45.2616 62.7446 45.1644C62.6477 45.0673 62.5992 44.9215 62.5508 44.7514C62.5023 44.5814 62.4781 44.3627 62.4781 44.0955V43.1237C62.4781 42.8564 62.5023 42.6378 62.5508 42.4677C62.5992 42.2976 62.6719 42.1519 62.7446 42.0547C62.8415 41.9575 62.9384 41.8846 63.0595 41.836C63.1806 41.7874 63.3018 41.7631 63.4229 41.7631C63.762 41.7631 64.0285 41.7631 64.2223 41.7874C64.4161 41.8117 64.6342 41.8117 64.8522 41.836H64.8764C64.9491 41.836 64.9976 41.8117 65.0218 41.7874C65.0702 41.7631 65.0945 41.7145 65.0945 41.6417V40.597C65.0945 40.4998 65.0702 40.4512 65.046 40.4269C64.9976 40.4026 64.9491 40.354 64.8522 40.3297C64.6826 40.2811 64.4888 40.2568 64.2223 40.2083C63.9559 40.1597 63.6651 40.1597 63.3018 40.1597C62.4781 40.1597 61.824 40.4026 61.3153 40.9128C60.8307 41.423 60.5643 42.1519 60.5643 43.1237V44.0955C60.5643 45.043 60.8065 45.7961 61.3153 46.3063C61.7998 46.8165 62.4781 47.0595 63.3018 47.0595C63.6409 47.0595 63.9559 47.0352 64.2223 47.0109C64.4888 46.9623 64.7069 46.938 64.8522 46.8894C64.9491 46.8651 64.9976 46.8408 65.046 46.7922C65.0945 46.7679 65.0945 46.695 65.0945 46.6221ZM57.5118 45.3831C57.3665 45.456 57.2211 45.5046 57.0515 45.5532C56.882 45.6018 56.7124 45.626 56.5428 45.626C56.3005 45.626 56.1067 45.6018 55.9856 45.5289C55.8645 45.456 55.816 45.3102 55.816 45.043V44.9458C55.816 44.8 55.8402 44.6785 55.8645 44.5814C55.8887 44.4842 55.9614 44.387 56.034 44.3141C56.1067 44.2412 56.2279 44.1926 56.349 44.1441C56.4701 44.1198 56.6397 44.0955 56.8577 44.0955H57.5118V45.3831ZM59.353 42.5406C59.353 42.1033 59.2803 41.7388 59.1592 41.4473C59.038 41.1558 58.8442 40.9128 58.6262 40.7185C58.3839 40.5241 58.1175 40.3783 57.7783 40.3054C57.4391 40.2083 57.0515 40.1597 56.6397 40.1597C56.2521 40.1597 55.8645 40.184 55.5011 40.2326C55.1377 40.2811 54.847 40.3297 54.629 40.4026C54.4836 40.4512 54.4109 40.5241 54.4109 40.6699V41.6174C54.4109 41.6903 54.4352 41.7388 54.4594 41.7874C54.5078 41.8117 54.5563 41.836 54.6047 41.836H54.6532C54.7501 41.836 54.8712 41.8117 54.9923 41.8117C55.1377 41.8117 55.2831 41.7874 55.4526 41.7874C55.6222 41.7874 55.816 41.7631 56.0098 41.7631C56.2036 41.7631 56.3974 41.7631 56.567 41.7631C56.8335 41.7631 57.0515 41.8117 57.1969 41.9089C57.3422 42.0061 57.4391 42.2247 57.4391 42.5649V42.9779H56.8093C55.816 42.9779 55.065 43.1237 54.629 43.4395C54.1687 43.7553 53.9506 44.2655 53.9506 44.9458V45.043C53.9506 45.4317 53.9991 45.7475 54.1202 45.9905C54.2413 46.2577 54.3867 46.4521 54.5805 46.6221C54.7743 46.7679 54.9681 46.8894 55.2104 46.9623C55.4526 47.0352 55.6949 47.0595 55.9614 47.0595C56.3005 47.0595 56.6155 47.0109 56.8577 46.9137C57.1 46.8165 57.3422 46.695 57.5845 46.525V46.7193C57.5845 46.7922 57.6087 46.8408 57.6572 46.8894C57.7056 46.938 57.7541 46.9623 57.8268 46.9623H59.1349C59.2076 46.9623 59.2561 46.938 59.3045 46.8894C59.353 46.8408 59.3772 46.7922 59.3772 46.7193V42.5406H59.353ZM53.127 46.7436V45.8447C53.127 45.7232 53.0543 45.6503 52.8847 45.6503H52.3275C52.1579 45.6503 52.0368 45.626 52.0126 45.5532C51.9641 45.4803 51.9641 45.3345 51.9641 45.0916V41.6903H52.9089C52.9816 41.6903 53.0301 41.666 53.0785 41.6174C53.127 41.5688 53.1512 41.5202 53.1512 41.4473V40.4998C53.1512 40.4269 53.127 40.3783 53.0785 40.3297C53.0301 40.2811 52.9816 40.2568 52.9089 40.2568H51.9641V39.0178C51.9641 38.9449 51.9399 38.8963 51.9157 38.872C51.8672 38.8477 51.8188 38.8234 51.7703 38.8234H51.7461L50.341 39.0664C50.2683 39.0907 50.2199 39.115 50.1714 39.1393C50.123 39.1879 50.0988 39.2365 50.0988 39.285V40.2326H49.1539C49.0813 40.2326 49.0328 40.2568 48.9844 40.3054C48.9359 40.354 48.9117 40.4026 48.9117 40.4755V41.2529C48.9117 41.3258 48.9359 41.3744 48.9844 41.3987C49.0328 41.4473 49.0813 41.4716 49.1539 41.4959L50.0988 41.6417V45.043C50.0988 45.456 50.1472 45.7961 50.2199 46.0634C50.3168 46.3306 50.4379 46.525 50.5833 46.6707C50.7286 46.8165 50.9467 46.9137 51.1889 46.9623C51.4312 47.0109 51.7219 47.0352 52.0368 47.0352C52.2064 47.0352 52.3517 47.0352 52.4971 47.0109C52.6182 46.9866 52.7878 46.9623 52.9574 46.938C53.0543 46.938 53.127 46.8651 53.127 46.7436ZM48.0396 46.7193V42.8321C48.0396 42.4677 48.0153 42.1276 47.9427 41.7874C47.8942 41.4716 47.7731 41.1801 47.6277 40.9371C47.4824 40.6942 47.2643 40.4998 46.9979 40.3783C46.7314 40.2326 46.3922 40.1597 45.9562 40.1597C45.5928 40.1597 45.2536 40.2083 44.9629 40.3054C44.6722 40.4026 44.3815 40.5484 44.0423 40.7913V40.4998C44.0423 40.4269 44.0181 40.3783 43.9697 40.3297C43.9212 40.2811 43.8727 40.2568 43.8001 40.2568H42.4919C42.4192 40.2568 42.3708 40.2811 42.3223 40.3297C42.2739 40.3783 42.2496 40.4269 42.2496 40.4998V46.7193C42.2496 46.7922 42.2739 46.8408 42.3223 46.8894C42.3708 46.938 42.4192 46.9623 42.4919 46.9623H43.897C43.9697 46.9623 44.0181 46.938 44.0666 46.8894C44.115 46.8408 44.1392 46.7922 44.1392 46.7193V42.1276C44.333 42.0304 44.5268 41.9332 44.7206 41.8603C44.8902 41.7874 45.084 41.7631 45.2536 41.7631C45.4232 41.7631 45.5686 41.7874 45.6897 41.8117C45.8108 41.836 45.8835 41.9089 45.9562 41.9818C46.0288 42.079 46.0531 42.1762 46.0773 42.3219C46.1015 42.4677 46.1015 42.6378 46.1015 42.8321V46.7193C46.1015 46.7922 46.1257 46.8408 46.1742 46.8894C46.2226 46.938 46.2711 46.9623 46.3438 46.9623H47.7489C47.8215 46.9623 47.87 46.938 47.9184 46.8894C48.0153 46.8408 48.0396 46.7679 48.0396 46.7193ZM39.2214 44.0226C39.2214 44.9701 38.8823 45.456 38.1797 45.456C37.8406 45.456 37.5741 45.3345 37.4045 45.0916C37.2349 44.8486 37.138 44.4842 37.138 44.0226V43.1965C37.138 42.7106 37.2349 42.3705 37.4045 42.1276C37.5741 41.8846 37.8406 41.7631 38.1797 41.7631C38.858 41.7631 39.2214 42.249 39.2214 43.1965V44.0226ZM41.111 43.1965C41.111 42.7349 41.0383 42.2976 40.9172 41.9332C40.7961 41.5688 40.6023 41.2529 40.36 40.9857C40.1178 40.7185 39.8028 40.5241 39.4394 40.3783C39.0761 40.2326 38.6642 40.1597 38.1797 40.1597C37.6952 40.1597 37.2834 40.2326 36.92 40.3783C36.5566 40.5241 36.2417 40.7185 35.9994 40.9857C35.7571 41.2529 35.5633 41.5688 35.4422 41.9332C35.3211 42.2976 35.2484 42.7349 35.2484 43.1965V44.0226C35.2484 44.4842 35.3211 44.9215 35.4422 45.2859C35.5633 45.6503 35.7571 45.9662 35.9994 46.2334C36.2417 46.5007 36.5566 46.695 36.92 46.8408C37.2834 46.9866 37.6952 47.0595 38.1797 47.0595C38.6642 47.0595 39.0761 46.9866 39.4394 46.8408C39.8028 46.695 40.1178 46.5007 40.36 46.2334C40.6023 45.9662 40.7961 45.6503 40.9172 45.2859C41.0383 44.9215 41.111 44.4842 41.111 44.0226V43.1965ZM34.6185 46.6221V45.5775C34.6185 45.5046 34.5943 45.456 34.5459 45.4317C34.4974 45.4074 34.449 45.3831 34.3763 45.3831H34.3521C34.134 45.4074 33.916 45.4317 33.7222 45.4317C33.5284 45.4317 33.2619 45.456 32.9227 45.456C32.8016 45.456 32.6562 45.4317 32.5593 45.3831C32.4382 45.3345 32.3413 45.2616 32.2444 45.1644C32.1475 45.0673 32.0991 44.9215 32.0506 44.7514C32.0022 44.5814 31.9779 44.3627 31.9779 44.0955V43.1237C31.9779 42.8564 32.0022 42.6378 32.0506 42.4677C32.0991 42.2976 32.1717 42.1519 32.2444 42.0547C32.3413 41.9575 32.4382 41.8846 32.5593 41.836C32.6805 41.7874 32.8016 41.7631 32.9227 41.7631C33.2619 41.7631 33.5284 41.7631 33.7222 41.7874C33.916 41.8117 34.134 41.8117 34.3521 41.836H34.3763C34.449 41.836 34.4974 41.8117 34.5459 41.7874C34.5943 41.7631 34.6185 41.7145 34.6185 41.6417V40.597C34.6185 40.4998 34.5943 40.4512 34.5701 40.4269C34.5216 40.4026 34.4732 40.354 34.3763 40.3297C34.2067 40.2811 34.0129 40.2568 33.7464 40.2083C33.4799 40.1597 33.1892 40.1597 32.8258 40.1597C32.0022 40.1597 31.3481 40.4026 30.8393 40.9128C30.3548 41.423 30.0883 42.1519 30.0883 43.1237V44.0955C30.0883 45.043 30.3306 45.7961 30.8393 46.3063C31.3238 46.8165 32.0022 47.0595 32.8258 47.0595C33.165 47.0595 33.4799 47.0352 33.7464 47.0109C34.0129 46.9623 34.2067 46.938 34.3763 46.8894C34.4732 46.8651 34.5216 46.8408 34.5701 46.7922C34.6185 46.7679 34.6185 46.695 34.6185 46.6221ZM28.9013 46.7193V42.8321C28.9013 42.4677 28.877 42.1276 28.8044 41.7874C28.7559 41.4716 28.6348 41.1801 28.4894 40.9371C28.3441 40.6942 28.126 40.4998 27.8596 40.3783C27.5931 40.2326 27.2539 40.1597 26.8179 40.1597C26.4545 40.1597 26.1153 40.2083 25.8246 40.3054C25.5339 40.4026 25.2432 40.5484 24.904 40.7913V40.4998C24.904 40.4269 24.8798 40.3783 24.8314 40.3297C24.7829 40.2811 24.7344 40.2568 24.6618 40.2568H23.3536C23.2809 40.2568 23.2325 40.2811 23.184 40.3297C23.1356 40.3783 23.1113 40.4269 23.1113 40.4998V46.7193C23.1113 46.7922 23.1356 46.8408 23.184 46.8894C23.2325 46.938 23.2809 46.9623 23.3536 46.9623H24.7587C24.8314 46.9623 24.8798 46.938 24.9283 46.8894C24.9767 46.8408 25.0009 46.7922 25.0009 46.7193V42.1276C25.1947 42.0304 25.3885 41.9332 25.5823 41.8603C25.7519 41.7874 25.9457 41.7631 26.1153 41.7631C26.2849 41.7631 26.4302 41.7874 26.5514 41.8117C26.6725 41.836 26.7452 41.9089 26.8179 41.9818C26.8905 42.079 26.9148 42.1762 26.939 42.3219C26.9632 42.4677 26.9632 42.6378 26.9632 42.8321V46.7193C26.9632 46.7922 26.9874 46.8408 27.0359 46.8894C27.0843 46.938 27.1328 46.9623 27.2055 46.9623H28.6106C28.6832 46.9623 28.7317 46.938 28.7801 46.8894C28.8528 46.8408 28.9013 46.7679 28.9013 46.7193ZM19.8893 45.3831C19.744 45.456 19.5986 45.5046 19.429 45.5532C19.2594 45.6018 19.0899 45.626 18.9203 45.626C18.678 45.626 18.4842 45.6018 18.3631 45.5289C18.242 45.456 18.1935 45.3102 18.1935 45.043V44.9458C18.1935 44.8 18.2177 44.6785 18.242 44.5814C18.2662 44.4842 18.3389 44.387 18.4115 44.3141C18.4842 44.2412 18.6053 44.1926 18.7265 44.1441C18.8476 44.1198 19.0172 44.0955 19.2352 44.0955H19.8893V45.3831ZM21.7547 42.5406C21.7547 42.1033 21.682 41.7388 21.5609 41.4473C21.4398 41.1558 21.246 40.9128 21.0279 40.7185C20.7857 40.5241 20.5192 40.3783 20.18 40.3054C19.8409 40.2083 19.4532 40.1597 19.0414 40.1597C18.6538 40.1597 18.2662 40.184 17.9028 40.2326C17.5394 40.2811 17.2487 40.3297 17.0307 40.4026C16.8853 40.4512 16.8126 40.5241 16.8126 40.6699V41.6174C16.8126 41.6903 16.8369 41.7388 16.8611 41.7874C16.9095 41.8117 16.958 41.836 17.0065 41.836H17.0549C17.1518 41.836 17.2729 41.8117 17.3941 41.8117C17.5394 41.8117 17.6848 41.7874 17.8786 41.7874C18.0482 41.7874 18.242 41.7631 18.4358 41.7631C18.6296 41.7631 18.8234 41.7631 18.993 41.7631C19.2594 41.7631 19.4775 41.8117 19.6228 41.9089C19.7682 42.0061 19.8651 42.2247 19.8651 42.5649V42.9779H19.2352C18.242 42.9779 17.491 43.1237 17.0549 43.4395C16.6188 43.7553 16.3766 44.2655 16.3766 44.9458V45.043C16.3766 45.4317 16.425 45.7475 16.5462 45.9905C16.6673 46.2577 16.8126 46.4521 17.0065 46.6221C17.2003 46.7679 17.3941 46.8894 17.6363 46.9623C17.8786 47.0352 18.1208 47.0595 18.3873 47.0595C18.7265 47.0595 19.0414 47.0109 19.2837 46.9137C19.5259 46.8165 19.7682 46.695 20.0104 46.525V46.7193C20.0104 46.7922 20.0347 46.8408 20.0831 46.8894C20.1316 46.938 20.18 46.9623 20.2527 46.9623H21.5609C21.6336 46.9623 21.682 46.938 21.7305 46.8894C21.7789 46.8408 21.8031 46.7922 21.8031 46.7193V42.5406H21.7547ZM13.421 44.387C13.421 44.7028 13.2999 44.9701 13.0819 45.1401C12.8639 45.3102 12.4278 45.4074 11.8464 45.4074H11.6526C11.5557 45.4074 11.4588 45.4074 11.3619 45.4074C11.265 45.4074 11.1681 45.4074 11.0712 45.4074H10.8774V43.2208H12.1855C12.6458 43.2208 12.985 43.318 13.1546 43.5367C13.3241 43.7553 13.421 43.9983 13.421 44.2655V44.387ZM13.3726 40.9128C13.3726 41.0343 13.3484 41.1558 13.3241 41.2772C13.2757 41.3987 13.2272 41.4959 13.1303 41.5688C13.0334 41.6417 12.9123 41.7145 12.767 41.7631C12.6216 41.8117 12.4278 41.836 12.1855 41.836H10.8774V39.8195C10.9258 39.8195 10.9743 39.8195 11.0469 39.8195C11.1196 39.8195 11.2165 39.8195 11.3134 39.8195H11.5799H11.7737C12.3793 39.8195 12.7912 39.8924 13.0334 40.0382C13.2757 40.184 13.3968 40.4269 13.3968 40.7427V40.9128H13.3726ZM15.3591 44.2655C15.3591 43.8525 15.2622 43.5124 15.0684 43.2208C14.8746 42.9293 14.6323 42.6864 14.3174 42.5406C14.6323 42.3948 14.8746 42.1519 15.0442 41.8603C15.2138 41.5445 15.3107 41.2044 15.3107 40.8399V40.6213C15.3107 40.1597 15.2138 39.7709 15.0442 39.4551C14.8746 39.1393 14.6081 38.8963 14.2932 38.702C13.9782 38.5076 13.5906 38.3861 13.1303 38.289C12.6701 38.2161 12.1855 38.1675 11.6283 38.1675C11.4345 38.1675 11.2407 38.1675 11.0469 38.1675C10.8531 38.1675 10.6593 38.1918 10.4655 38.1918C10.2717 38.1918 10.1021 38.2161 9.93255 38.2404C9.76297 38.2647 9.64184 38.2647 9.54494 38.289C9.32691 38.3375 9.15733 38.3861 9.06042 38.5076C8.96352 38.6048 8.91507 38.7991 8.91507 39.0664V46.1605C8.91507 46.4278 8.96352 46.5978 9.06042 46.7193C9.15733 46.8165 9.32691 46.8894 9.54494 46.938C9.66607 46.9623 9.81142 46.9866 9.95677 46.9866C10.1264 47.0109 10.2959 47.0109 10.4897 47.0352C10.6835 47.0352 10.8774 47.0595 11.0712 47.0595C11.265 47.0595 11.483 47.0595 11.6768 47.0595C12.1855 47.0595 12.6701 47.0109 13.1061 46.938C13.5422 46.8651 13.954 46.7193 14.2689 46.525C14.6081 46.3306 14.8504 46.0634 15.0684 45.7232C15.2622 45.3831 15.3591 44.9458 15.3591 44.4356V44.2655Z" fill="#004E91"/>
</g>
</g>
<defs>
<clipPath id="clip0_1972_9095">
<rect width="79" height="56" fill="white"/>
</clipPath>
</defs>
</svg>
