<svg width="77" height="54" viewBox="0 0 77 54" fill="none" xmlns="http://www.w3.org/2000/svg">
<g clip-path="url(#clip0_4506_279)">
<path d="M61.4048 15.0872H58.6547H45.9298H43.1797L41.3152 17.1957L35.3023 24.013L33.4379 26.1215H30.6878H18.1959H15.4459L17.2637 23.9896L18.126 22.9822L19.9439 20.8503H17.1938H13.6513H11.6703C10.1555 20.8503 8.92026 22.1388 8.92026 23.685V29.167V29.6824C8.92026 31.2521 10.1555 32.5172 11.6703 32.5172H12.4394H41.3385H43.4127C44.9276 32.5172 47.0018 31.5566 48.004 30.4087L52.805 24.9267L61.4048 15.0872Z" fill="#959595"/>
<path d="M65.0638 8.69155C66.5787 8.69155 67.8139 9.98005 67.8139 11.5263V17.5237C67.8139 19.0933 66.5787 20.3584 65.0638 20.3584H63.5722H59.5403H56.7902L58.6314 18.2499L59.5403 17.1957L61.3815 15.0872H43.1564L33.4379 26.0981H15.3293L28.3106 11.3388L28.8001 10.7766C29.8255 9.62864 31.8997 8.66812 33.4146 8.66812H34.0439H65.0638V8.69155Z" fill="white"/>
<path d="M67.8139 45.0742V44.2074C67.8139 44.0902 67.7439 44.0199 67.5808 44.0199H67.0215C66.8583 44.0199 66.7418 43.9965 66.7185 43.9262C66.6719 43.8559 66.6719 43.7154 66.6719 43.4811V40.2013H67.5808C67.6507 40.2013 67.6973 40.1779 67.7439 40.131C67.7905 40.0841 67.8139 40.0373 67.8139 39.967V39.0533C67.8139 38.9831 67.7905 38.9362 67.7439 38.8894C67.6973 38.8425 67.6507 38.8191 67.5808 38.8191H66.6719V37.6243C66.6719 37.554 66.6486 37.5071 66.6253 37.4837C66.5786 37.4603 66.532 37.4369 66.4854 37.4369H66.4621L65.1104 37.6711C65.0405 37.6946 64.9939 37.718 64.9472 37.7414C64.9006 37.7883 64.8773 37.8351 64.8773 37.882V38.7956H63.9684C63.8985 38.7956 63.8519 38.8191 63.8053 38.8659C63.7586 38.9128 63.7353 38.9596 63.7353 39.0299V39.7796C63.7353 39.8499 63.7586 39.8967 63.8053 39.9202C63.8519 39.967 63.8985 39.9904 63.9684 40.0139L64.8773 40.1544V43.4343C64.8773 43.8325 64.9239 44.1605 64.9939 44.4182C65.0871 44.6759 65.2036 44.8633 65.3434 45.0039C65.5066 45.1445 65.693 45.2382 65.9261 45.285C66.1591 45.3319 66.4388 45.3553 66.7418 45.3553C66.9049 45.3553 67.0448 45.3553 67.1846 45.3319C67.3011 45.3084 67.4643 45.285 67.6274 45.2616C67.7439 45.2616 67.8139 45.1913 67.8139 45.0742ZM62.9663 44.957V43.9497C62.9663 43.8794 62.9429 43.8325 62.8963 43.8091C62.8497 43.7857 62.8031 43.7622 62.7565 43.7622H62.7332C62.5234 43.7857 62.3137 43.8091 62.1273 43.8091C61.9408 43.8325 61.6844 43.8325 61.3582 43.8325C61.2416 43.8325 61.1018 43.8091 61.0086 43.7622C60.892 43.7154 60.7988 43.6451 60.7056 43.5514C60.6124 43.4577 60.5658 43.3171 60.5192 43.1531C60.4725 42.9891 60.4492 42.7783 60.4492 42.5206V41.5835C60.4492 41.3258 60.4725 41.1149 60.5192 40.951C60.5658 40.787 60.6357 40.6464 60.7056 40.5527C60.7988 40.459 60.892 40.3887 61.0086 40.3418C61.1251 40.295 61.2416 40.2716 61.3582 40.2716C61.6844 40.2716 61.9408 40.2716 62.1273 40.295C62.3137 40.3184 62.5234 40.3184 62.7332 40.3418H62.7565C62.8264 40.3418 62.873 40.3184 62.8963 40.295C62.9429 40.2716 62.9663 40.2247 62.9663 40.1544V39.1471C62.9663 39.0533 62.943 39.0065 62.9196 38.9831C62.873 38.9596 62.8264 38.9128 62.7332 38.8894C62.5701 38.8425 62.3836 38.8191 62.1273 38.7722C61.8709 38.7254 61.5912 38.7254 61.2416 38.7254C60.4492 38.7254 59.82 38.9596 59.3306 39.4516C58.8644 39.9436 58.6081 40.6464 58.6081 41.5835V42.5206C58.6081 43.4343 58.8411 44.1605 59.3306 44.6525C59.7967 45.1445 60.4492 45.3787 61.2416 45.3787C61.5679 45.3787 61.8709 45.3553 62.1273 45.3319C62.3836 45.285 62.5934 45.2616 62.7332 45.2147C62.8264 45.1913 62.873 45.1679 62.9196 45.121C62.9663 45.0976 62.9663 45.0273 62.9663 44.957ZM55.6716 43.7622C55.5317 43.8325 55.3919 43.8794 55.2288 43.9262C55.0656 43.9731 54.9025 43.9965 54.7393 43.9965C54.5063 43.9965 54.3198 43.9731 54.2033 43.9028C54.0868 43.8325 54.0402 43.692 54.0402 43.4343V43.3405C54.0402 43.2 54.0635 43.0828 54.0868 42.9891C54.1101 42.8954 54.18 42.8017 54.2499 42.7314C54.3198 42.6612 54.4364 42.6143 54.5529 42.5674C54.6694 42.544 54.8326 42.5206 55.0423 42.5206H55.6716V43.7622ZM57.4428 41.0212C57.4428 40.5995 57.3729 40.2481 57.2564 39.967C57.1398 39.6859 56.9534 39.4516 56.7436 39.2642C56.5106 39.0768 56.2542 38.9362 55.9279 38.8659C55.6016 38.7722 55.2288 38.7254 54.8326 38.7254C54.4597 38.7254 54.0868 38.7488 53.7372 38.7956C53.3876 38.8425 53.1079 38.8894 52.8982 38.9596C52.7583 39.0065 52.6884 39.0768 52.6884 39.2173V40.131C52.6884 40.2013 52.7117 40.2481 52.735 40.295C52.7817 40.3184 52.8283 40.3418 52.8749 40.3418H52.9215C53.0147 40.3418 53.1312 40.3184 53.2478 40.3184C53.3876 40.3184 53.5274 40.295 53.6906 40.295C53.8537 40.295 54.0402 40.2716 54.2266 40.2716C54.4131 40.2716 54.5995 40.2716 54.7626 40.2716C55.019 40.2716 55.2288 40.3184 55.3686 40.4121C55.5084 40.5058 55.6016 40.7167 55.6016 41.0447V41.4429H54.9957C54.0402 41.4429 53.3177 41.5835 52.8982 41.8881C52.4554 42.1926 52.2456 42.6846 52.2456 43.3405V43.4343C52.2456 43.8091 52.2922 44.1136 52.4088 44.3479C52.5253 44.6056 52.6651 44.793 52.8516 44.957C53.038 45.0976 53.2245 45.2147 53.4575 45.285C53.6906 45.3553 53.9236 45.3787 54.18 45.3787C54.5063 45.3787 54.8092 45.3319 55.0423 45.2382C55.2754 45.1445 55.5084 45.0273 55.7415 44.8633V45.0507C55.7415 45.121 55.7648 45.1679 55.8114 45.2147C55.858 45.2616 55.9046 45.285 55.9745 45.285H57.233C57.303 45.285 57.3496 45.2616 57.3962 45.2147C57.4428 45.1679 57.4661 45.121 57.4661 45.0507V41.0212H57.4428ZM51.4532 45.0742V44.2074C51.4532 44.0902 51.3833 44.0199 51.2202 44.0199H50.6841C50.521 44.0199 50.4045 43.9965 50.3812 43.9262C50.3345 43.8559 50.3345 43.7154 50.3345 43.4811V40.2013H51.2435C51.3134 40.2013 51.36 40.1779 51.4066 40.131C51.4532 40.0841 51.4765 40.0373 51.4765 39.967V39.0533C51.4765 38.9831 51.4532 38.9362 51.4066 38.8894C51.36 38.8425 51.3134 38.8191 51.2435 38.8191H50.3345V37.6243C50.3345 37.554 50.3112 37.5071 50.2879 37.4837C50.2413 37.4603 50.1947 37.4369 50.1481 37.4369H50.1248L48.7731 37.6711C48.7031 37.6946 48.6565 37.718 48.6099 37.7414C48.5633 37.7883 48.54 37.8351 48.54 37.882V38.7956H47.6311C47.5612 38.7956 47.5146 38.8191 47.4679 38.8659C47.4213 38.9128 47.398 38.9596 47.398 39.0299V39.7796C47.398 39.8499 47.4213 39.8967 47.4679 39.9202C47.5146 39.967 47.5612 39.9904 47.6311 40.0139L48.54 40.1544V43.4343C48.54 43.8325 48.5866 44.1605 48.6565 44.4182C48.7498 44.6759 48.8663 44.8633 49.0061 45.0039C49.146 45.1445 49.3557 45.2382 49.5888 45.285C49.8218 45.3319 50.1015 45.3553 50.4045 45.3553C50.5676 45.3553 50.7074 45.3553 50.8473 45.3319C50.9638 45.3084 51.1269 45.285 51.2901 45.2616C51.3833 45.2616 51.4532 45.1913 51.4532 45.0742ZM46.559 45.0507V41.3024C46.559 40.951 46.5357 40.623 46.4658 40.295C46.4192 39.9904 46.3027 39.7093 46.1628 39.475C46.023 39.2408 45.8132 39.0533 45.5569 38.9362C45.3005 38.7956 44.9742 38.7254 44.5547 38.7254C44.2051 38.7254 43.8789 38.7722 43.5992 38.8659C43.3195 38.9596 43.0399 39.1002 42.7136 39.3345V39.0533C42.7136 38.9831 42.6903 38.9362 42.6437 38.8894C42.597 38.8425 42.5504 38.8191 42.4805 38.8191H41.222C41.1521 38.8191 41.1055 38.8425 41.0589 38.8894C41.0123 38.9362 40.9889 38.9831 40.9889 39.0533V45.0507C40.9889 45.121 41.0123 45.1679 41.0589 45.2147C41.1055 45.2616 41.1521 45.285 41.222 45.285H42.5737C42.6437 45.285 42.6903 45.2616 42.7369 45.2147C42.7835 45.1679 42.8068 45.121 42.8068 45.0507V40.623C42.9932 40.5293 43.1797 40.4356 43.3661 40.3653C43.5293 40.295 43.7157 40.2716 43.8789 40.2716C44.042 40.2716 44.1818 40.295 44.2984 40.3184C44.4149 40.3418 44.4848 40.4121 44.5547 40.4824C44.6246 40.5761 44.6479 40.6698 44.6713 40.8104C44.6946 40.951 44.6946 41.1149 44.6946 41.3024V45.0507C44.6946 45.121 44.7179 45.1679 44.7645 45.2147C44.8111 45.2616 44.8577 45.285 44.9276 45.285H46.2794C46.3493 45.285 46.3959 45.2616 46.4425 45.2147C46.5357 45.1679 46.559 45.0976 46.559 45.0507ZM38.0757 42.4503C38.0757 43.364 37.7495 43.8325 37.0736 43.8325C36.7473 43.8325 36.4909 43.7154 36.3278 43.4811C36.1647 43.2468 36.0714 42.8954 36.0714 42.4503V41.6538C36.0714 41.1852 36.1647 40.8572 36.3278 40.623C36.4909 40.3887 36.7473 40.2716 37.0736 40.2716C37.7261 40.2716 38.0757 40.7401 38.0757 41.6538V42.4503ZM39.8936 41.6538C39.8936 41.2087 39.8237 40.787 39.7071 40.4356C39.5906 40.0841 39.4042 39.7796 39.1711 39.5219C38.938 39.2642 38.6351 39.0768 38.2855 38.9362C37.9359 38.7956 37.5397 38.7254 37.0736 38.7254C36.6075 38.7254 36.2113 38.7956 35.8617 38.9362C35.5121 39.0768 35.2091 39.2642 34.9761 39.5219C34.743 39.7796 34.5566 40.0841 34.44 40.4356C34.3235 40.787 34.2536 41.2087 34.2536 41.6538V42.4503C34.2536 42.8954 34.3235 43.3171 34.44 43.6685C34.5566 44.0199 34.743 44.3245 34.9761 44.5822C35.2091 44.8399 35.5121 45.0273 35.8617 45.1679C36.2113 45.3084 36.6075 45.3787 37.0736 45.3787C37.5397 45.3787 37.9359 45.3084 38.2855 45.1679C38.6351 45.0273 38.938 44.8399 39.1711 44.5822C39.4042 44.3245 39.5906 44.0199 39.7071 43.6685C39.8237 43.3171 39.8936 42.8954 39.8936 42.4503V41.6538ZM33.6476 44.957V43.9497C33.6476 43.8794 33.6243 43.8325 33.5777 43.8091C33.5311 43.7857 33.4845 43.7622 33.4146 43.7622H33.3913C33.1815 43.7857 32.9718 43.8091 32.7853 43.8091C32.5989 43.8091 32.3425 43.8325 32.0162 43.8325C31.8997 43.8325 31.7599 43.8091 31.6667 43.7622C31.5501 43.7154 31.4569 43.6451 31.3637 43.5514C31.2705 43.4577 31.2238 43.3171 31.1772 43.1531C31.1306 42.9891 31.1073 42.7783 31.1073 42.5206V41.5835C31.1073 41.3258 31.1306 41.1149 31.1772 40.951C31.2238 40.787 31.2938 40.6464 31.3637 40.5527C31.4569 40.459 31.5501 40.3887 31.6667 40.3418C31.7832 40.295 31.8997 40.2716 32.0162 40.2716C32.3425 40.2716 32.5989 40.2716 32.7853 40.295C32.9718 40.3184 33.1815 40.3184 33.3913 40.3418H33.4146C33.4845 40.3418 33.5311 40.3184 33.5777 40.295C33.6243 40.2716 33.6476 40.2247 33.6476 40.1544V39.1471C33.6476 39.0533 33.6243 39.0065 33.601 38.9831C33.5544 38.9596 33.5078 38.9128 33.4146 38.8894C33.2514 38.8425 33.065 38.8191 32.8086 38.7722C32.5523 38.7254 32.2726 38.7254 31.923 38.7254C31.1306 38.7254 30.5014 38.9596 30.0119 39.4516C29.5458 39.9436 29.2895 40.6464 29.2895 41.5835V42.5206C29.2895 43.4343 29.5225 44.1605 30.0119 44.6525C30.4781 45.1445 31.1306 45.3787 31.923 45.3787C32.2493 45.3787 32.5523 45.3553 32.8086 45.3319C33.065 45.285 33.2514 45.2616 33.4146 45.2147C33.5078 45.1913 33.5544 45.1679 33.601 45.121C33.6476 45.0976 33.6476 45.0273 33.6476 44.957ZM28.1475 45.0507V41.3024C28.1475 40.951 28.1242 40.623 28.0543 40.295C28.0077 39.9904 27.8911 39.7093 27.7513 39.475C27.6115 39.2408 27.4017 39.0533 27.1453 38.9362C26.889 38.7956 26.5627 38.7254 26.1432 38.7254C25.7936 38.7254 25.4673 38.7722 25.1877 38.8659C24.908 38.9596 24.6283 39.1002 24.302 39.3345V39.0533C24.302 38.9831 24.2787 38.9362 24.2321 38.8894C24.1855 38.8425 24.1389 38.8191 24.069 38.8191H22.8105C22.7406 38.8191 22.6939 38.8425 22.6473 38.8894C22.6007 38.9362 22.5774 38.9831 22.5774 39.0533V45.0507C22.5774 45.121 22.6007 45.1679 22.6473 45.2147C22.6939 45.2616 22.7406 45.285 22.8105 45.285H24.1622C24.2321 45.285 24.2787 45.2616 24.3253 45.2147C24.372 45.1679 24.3953 45.121 24.3953 45.0507V40.623C24.5817 40.5293 24.7682 40.4356 24.9546 40.3653C25.1177 40.295 25.3042 40.2716 25.4673 40.2716C25.6305 40.2716 25.7703 40.295 25.8868 40.3184C26.0034 40.3418 26.0733 40.4121 26.1432 40.4824C26.2131 40.5761 26.2364 40.6698 26.2597 40.8104C26.283 40.951 26.283 41.1149 26.283 41.3024V45.0507C26.283 45.121 26.3063 45.1679 26.3529 45.2147C26.3996 45.2616 26.4462 45.285 26.5161 45.285H27.8678C27.9377 45.285 27.9843 45.2616 28.031 45.2147C28.1009 45.1679 28.1475 45.0976 28.1475 45.0507ZM19.4778 43.7622C19.3379 43.8325 19.1981 43.8794 19.0349 43.9262C18.8718 43.9731 18.7087 43.9965 18.5455 43.9965C18.3125 43.9965 18.126 43.9731 18.0095 43.9028C17.893 43.8325 17.8464 43.692 17.8464 43.4343V43.3405C17.8464 43.2 17.8697 43.0828 17.893 42.9891C17.9163 42.8954 17.9862 42.8017 18.0561 42.7314C18.126 42.6612 18.2426 42.6143 18.3591 42.5674C18.4756 42.544 18.6387 42.5206 18.8485 42.5206H19.4778V43.7622ZM21.2723 41.0212C21.2723 40.5995 21.2024 40.2481 21.0859 39.967C20.9693 39.6859 20.7829 39.4516 20.5731 39.2642C20.3401 39.0768 20.0837 38.9362 19.7574 38.8659C19.4311 38.7722 19.0583 38.7254 18.6621 38.7254C18.2892 38.7254 17.9163 38.7488 17.5667 38.7956C17.2171 38.8425 16.9374 38.8894 16.7277 38.9596C16.5878 39.0065 16.5179 39.0768 16.5179 39.2173V40.131C16.5179 40.2013 16.5412 40.2481 16.5645 40.295C16.6111 40.3184 16.6578 40.3418 16.7044 40.3418H16.751C16.8442 40.3418 16.9607 40.3184 17.0773 40.3184C17.2171 40.3184 17.3569 40.295 17.5434 40.295C17.7065 40.295 17.893 40.2716 18.0794 40.2716C18.2659 40.2716 18.4523 40.2716 18.6154 40.2716C18.8718 40.2716 19.0816 40.3184 19.2214 40.4121C19.3612 40.5058 19.4544 40.7167 19.4544 41.0447V41.4429H18.8485C17.893 41.4429 17.1705 41.5835 16.751 41.8881C16.3315 42.1926 16.0984 42.6846 16.0984 43.3405V43.4343C16.0984 43.8091 16.145 44.1136 16.2616 44.3479C16.3781 44.6056 16.5179 44.793 16.7044 44.957C16.8908 45.0976 17.0773 45.2147 17.3103 45.285C17.5434 45.3553 17.7764 45.3787 18.0328 45.3787C18.3591 45.3787 18.6621 45.3319 18.8951 45.2382C19.1282 45.1445 19.3612 45.0273 19.5943 44.8633V45.0507C19.5943 45.121 19.6176 45.1679 19.6642 45.2147C19.7108 45.2616 19.7574 45.285 19.8273 45.285H21.0859C21.1558 45.285 21.2024 45.2616 21.249 45.2147C21.2956 45.1679 21.3189 45.121 21.3189 45.0507V41.0212H21.2723ZM13.2551 42.8017C13.2551 43.1063 13.1386 43.364 12.9288 43.528C12.7191 43.692 12.2996 43.7857 11.7403 43.7857H11.5538C11.4606 43.7857 11.3674 43.7857 11.2741 43.7857C11.1809 43.7857 11.0877 43.7857 10.9945 43.7857H10.808V41.6772H12.0665C12.5093 41.6772 12.8356 41.7709 12.9988 41.9818C13.1619 42.1926 13.2551 42.4269 13.2551 42.6846V42.8017ZM13.2085 39.4516C13.2085 39.5687 13.1852 39.6859 13.1619 39.803C13.1153 39.9202 13.0687 40.0139 12.9755 40.0841C12.8822 40.1544 12.7657 40.2247 12.6259 40.2716C12.486 40.3184 12.2996 40.3418 12.0665 40.3418H10.808V38.3974C10.8546 38.3974 10.9012 38.3974 10.9712 38.3974C11.0411 38.3974 11.1343 38.3974 11.2275 38.3974H11.4839H11.6703C12.253 38.3974 12.6492 38.4677 12.8822 38.6082C13.1153 38.7488 13.2318 38.9831 13.2318 39.2876V39.4516H13.2085ZM15.1196 42.6846C15.1196 42.2863 15.0264 41.9583 14.8399 41.6772C14.6535 41.3961 14.4204 41.1618 14.1174 41.0212C14.4204 40.8807 14.6535 40.6464 14.8166 40.3653C14.9797 40.0607 15.073 39.7327 15.073 39.3813V39.1705C15.073 38.7254 14.9797 38.3505 14.8166 38.046C14.6535 37.7414 14.3971 37.5071 14.0941 37.3197C13.7912 37.1323 13.4183 37.0152 12.9755 36.9215C12.5326 36.8512 12.0665 36.8043 11.5305 36.8043C11.3441 36.8043 11.1576 36.8043 10.9712 36.8043C10.7847 36.8043 10.5983 36.8277 10.4118 36.8277C10.2254 36.8277 10.0622 36.8512 9.8991 36.8746C9.73596 36.898 9.61943 36.898 9.52621 36.9215C9.31646 36.9683 9.15332 37.0152 9.06009 37.1323C8.96687 37.226 8.92026 37.4134 8.92026 37.6711V44.5119C8.92026 44.7696 8.96687 44.9336 9.06009 45.0507C9.15332 45.1445 9.31646 45.2147 9.52621 45.2616C9.64274 45.285 9.78257 45.3084 9.9224 45.3084C10.0855 45.3319 10.2487 45.3319 10.4351 45.3553C10.6216 45.3553 10.808 45.3787 10.9945 45.3787C11.1809 45.3787 11.3907 45.3787 11.5771 45.3787C12.0665 45.3787 12.5326 45.3319 12.9521 45.2616C13.3717 45.1913 13.7679 45.0507 14.0708 44.8633C14.3971 44.6759 14.6302 44.4182 14.8399 44.0902C15.0264 43.7622 15.1196 43.3405 15.1196 42.8486V42.6846Z" fill="#959595"/>
</g>
<defs>
<clipPath id="clip0_4506_279">
<rect width="76" height="54" fill="white" transform="translate(0.34375)"/>
</clipPath>
</defs>
</svg>
