<svg width="116" height="24" viewBox="0 0 116 24" fill="none" xmlns="http://www.w3.org/2000/svg">
<g id="Bitcoin_logo 1" clip-path="url(#clip0_1972_9037)">
<g id="Group">
<path id="Vector" d="M23.8557 14.9043C22.2381 21.3329 15.6668 25.2452 9.17798 23.6421C2.69182 22.0393 -1.25672 15.5279 0.361601 9.09979C1.97841 2.67052 8.54973 -1.24217 15.0366 0.360558C21.5251 1.96328 25.4732 8.47543 23.8557 14.9043Z" fill="#F7931A"/>
<path id="Vector_2" d="M17.4483 10.2919C17.6893 8.69517 16.4624 7.83681 14.7846 7.26419L15.3288 5.10122L14.0001 4.7731L13.4702 6.87907C13.1209 6.79282 12.7621 6.71145 12.4056 6.63083L12.9392 4.51098L11.6112 4.18286L11.0666 6.34507C10.7774 6.27983 10.4936 6.21533 10.218 6.14746L10.2195 6.14071L8.38702 5.68734L8.03354 7.09356C8.03354 7.09356 9.01944 7.31744 8.99862 7.33131C9.5368 7.46443 9.63406 7.8173 9.61779 8.09705L8.99786 10.5611C9.03495 10.5705 9.08302 10.584 9.13601 10.605C9.09173 10.5941 9.04442 10.5821 8.9956 10.5705L8.12663 14.0223C8.06078 14.1843 7.89388 14.4273 7.51769 14.3351C7.53093 14.3542 6.55184 14.0962 6.55184 14.0962L5.89217 15.6033L7.62138 16.0304C7.94308 16.1103 8.25834 16.1939 8.56868 16.2727L8.01878 18.4604L9.34605 18.7885L9.89067 16.624C10.2532 16.7215 10.6052 16.8115 10.9496 16.8963L10.4069 19.0506L11.7357 19.3788L12.2856 17.1952C14.5515 17.62 16.2553 17.4487 16.9725 15.4181C17.5505 13.7831 16.9438 12.84 15.7516 12.225C16.6198 12.0266 17.2738 11.4608 17.4483 10.2919ZM14.4122 14.5102C14.0016 16.1452 11.2232 15.2613 10.3225 15.0397L11.0522 12.1414C11.9529 12.3641 14.8414 12.8051 14.4122 14.5102ZM14.8232 10.2683C14.4485 11.7555 12.1361 10.9999 11.386 10.8146L12.0475 8.18593C12.7977 8.37118 15.2134 8.71691 14.8232 10.2683Z" fill="white"/>
<path id="Vector_3" d="M35.4898 7.26189C36.4719 7.26189 37.3204 7.43626 38.0334 7.77863C38.7499 8.12437 39.341 8.59012 39.8153 9.17586C40.283 9.7646 40.6312 10.4527 40.856 11.2413C41.0793 12.0322 41.1914 12.8823 41.1914 13.7924C41.1914 15.1904 40.9329 16.5111 40.411 17.7561C39.8891 19.003 39.1809 20.0844 38.2802 21.0069C37.3802 21.9283 36.3175 22.6546 35.092 23.1913C33.8684 23.7283 32.5381 23.9968 31.1098 23.9968C30.9251 23.9968 30.6004 23.9915 30.1417 23.9821C29.683 23.9728 29.1558 23.9259 28.5653 23.8468C27.9712 23.7646 27.3429 23.6431 26.6794 23.4804C26.0164 23.3206 25.3866 23.0968 24.7935 22.8125L30.0966 0.734371L34.8464 0.00500488L32.9476 7.83976C33.3541 7.65826 33.7636 7.51763 34.1723 7.41526C34.5814 7.31439 35.0205 7.26189 35.4898 7.26189ZM31.5056 20.2633C32.2209 20.2633 32.895 20.0889 33.5282 19.7466C34.1632 19.4038 34.7113 18.9411 35.1703 18.3647C35.6294 17.7857 35.9927 17.1336 36.2577 16.405C36.5226 15.6764 36.6566 14.9163 36.6566 14.1254C36.6566 13.1538 36.4927 12.3959 36.1661 11.8481C35.8395 11.3025 35.2351 11.028 34.3574 11.028C34.0698 11.028 33.6992 11.0823 33.2398 11.1794C32.7788 11.2826 32.3663 11.4967 31.9965 11.8188L29.9748 20.1392C30.0966 20.1606 30.2045 20.1808 30.2964 20.1999C30.3865 20.2206 30.4861 20.2352 30.5852 20.2453C30.69 20.2569 30.81 20.2629 30.955 20.2629C31.0999 20.2629 31.2812 20.2633 31.5056 20.2633Z" fill="#1E1E2C"/>
<path id="Vector_4" d="M46.1171 23.5742H41.5804L45.4117 7.60056H49.9794L46.1171 23.5742ZM48.3247 5.65434C47.6915 5.65434 47.1174 5.46759 46.608 5.09334C46.0944 4.72135 45.8401 4.14873 45.8401 3.377C45.8401 2.9525 45.9271 2.55425 46.0997 2.17851C46.2749 1.80352 46.5039 1.48065 46.7908 1.20616C47.0773 0.933909 47.4092 0.716408 47.7861 0.552536C48.1654 0.391289 48.5688 0.310669 48.9988 0.310669C49.6316 0.310669 50.2027 0.497417 50.714 0.871661C51.2234 1.24778 51.4796 1.82039 51.4796 2.58801C51.4796 3.014 51.3929 3.41374 51.2188 3.78874C51.0459 4.16373 50.8169 4.4866 50.53 4.76109C50.2458 5.03371 49.9109 5.25046 49.5347 5.41283C49.1551 5.57671 48.7531 5.65434 48.3247 5.65434Z" fill="#1E1E2C"/>
<path id="Vector_5" d="M53.9552 3.62072L58.7068 2.89136L57.54 7.59978H62.6289L61.7099 11.304H56.6517L55.3044 16.8914C55.1802 17.3571 55.1099 17.7921 55.0902 18.1964C55.0678 18.6025 55.1197 18.9512 55.2423 19.2449C55.3642 19.5392 55.5833 19.7661 55.9012 19.9266C56.2176 20.0897 56.6707 20.1718 57.2648 20.1718C57.7542 20.1718 58.2311 20.1257 58.692 20.0342C59.1504 19.9442 59.6147 19.819 60.0848 19.6551L60.4232 23.1185C59.81 23.3413 59.1462 23.5329 58.4309 23.6942C57.7145 23.8577 56.8663 23.9364 55.8861 23.9364C54.4767 23.9364 53.3841 23.729 52.6055 23.3162C51.8282 22.9003 51.2786 22.3322 50.9498 21.6129C50.6254 20.8963 50.4805 20.0702 50.521 19.1395C50.563 18.2065 50.7049 17.2259 50.9498 16.1932L53.9552 3.62072Z" fill="#1E1E2C"/>
<path id="Vector_6" d="M62.429 17.1955C62.429 15.8196 62.6538 14.5221 63.1031 13.3075C63.5516 12.0918 64.1976 11.0287 65.0359 10.1163C65.8712 9.20848 66.8889 8.48923 68.0867 7.96124C69.2789 7.43625 70.6137 7.17151 72.0848 7.17151C73.0056 7.17151 73.8281 7.25776 74.5517 7.43063C75.2783 7.60501 75.9357 7.83038 76.5303 8.11313L74.9657 11.6381C74.557 11.4738 74.1327 11.3291 73.6941 11.1978C73.2551 11.0639 72.7191 10.9995 72.0852 10.9995C70.571 10.9995 69.3739 11.5166 68.483 12.5474C67.5955 13.579 67.1485 14.9676 67.1485 16.7095C67.1485 17.7418 67.3733 18.5766 67.8244 19.2152C68.2733 19.8538 69.1025 20.1714 70.3064 20.1714C70.9006 20.1714 71.474 20.1099 72.0231 19.9899C72.5765 19.8684 73.0651 19.7154 73.4954 19.5347L73.8341 23.1481C73.2604 23.3686 72.6276 23.5678 71.9334 23.7421C71.2378 23.9105 70.4097 23.9979 69.4496 23.9979C68.1821 23.9979 67.1091 23.8141 66.2315 23.4523C65.3534 23.0848 64.6279 22.5969 64.0564 21.9789C63.4819 21.3594 63.0694 20.6361 62.8143 19.8058C62.5592 18.9763 62.429 18.1048 62.429 17.1955Z" fill="#1E1E2C"/>
<path id="Vector_7" d="M82.5823 23.9979C81.4996 23.9979 80.5591 23.8344 79.7613 23.5107C78.9657 23.1871 78.3068 22.733 77.7857 22.1443C77.2638 21.5585 76.8732 20.8644 76.6056 20.0646C76.338 19.2651 76.2094 18.3797 76.2094 17.4096C76.2094 16.1927 76.4065 14.9763 76.8051 13.7632C77.2017 12.5474 77.7902 11.4551 78.5691 10.4842C79.3419 9.51185 80.2953 8.71685 81.4178 8.09699C82.5392 7.48125 83.829 7.17151 85.2778 7.17151C86.3409 7.17151 87.2765 7.33538 88.0852 7.659C88.8902 7.98187 89.5533 8.43974 90.0775 9.02548C90.596 9.61422 90.99 10.3053 91.2549 11.1063C91.5217 11.9043 91.6534 12.7919 91.6534 13.7628C91.6534 14.9759 91.4589 16.1924 91.0729 17.4092C90.6865 18.6201 90.1131 19.7151 89.3561 20.6882C88.6007 21.659 87.6561 22.4537 86.5214 23.0709C85.3883 23.6881 84.0743 23.9979 82.5823 23.9979ZM84.8497 10.9998C84.1772 10.9998 83.5826 11.1933 83.0736 11.5754C82.5627 11.9621 82.1335 12.4481 81.7876 13.0342C81.4379 13.6229 81.1786 14.2649 81.0034 14.9628C80.8297 15.6621 80.7445 16.3232 80.7445 16.9514C80.7445 17.965 80.9095 18.7543 81.2339 19.3224C81.5628 19.8876 82.1535 20.1718 83.0123 20.1718C83.6871 20.1718 84.2786 19.9798 84.7907 19.5936C85.2986 19.2099 85.7282 18.7236 86.0767 18.1363C86.4242 17.5506 86.6857 16.9067 86.8609 16.2077C87.0324 15.5106 87.1198 14.8458 87.1198 14.2188C87.1198 13.2078 86.9555 12.4166 86.6282 11.8492C86.3012 11.2841 85.7077 10.9998 84.8497 10.9998Z" fill="#1E1E2C"/>
<path id="Vector_8" d="M96.597 23.5742H92.0565L95.8877 7.60056H100.458L96.597 23.5742ZM98.8012 5.65434C98.1684 5.65434 97.5946 5.46759 97.086 5.09334C96.575 4.72135 96.3184 4.14873 96.3184 3.377C96.3184 2.9525 96.4066 2.55425 96.5796 2.17851C96.7525 1.80352 96.983 1.48065 97.2699 1.20616C97.5549 0.933909 97.8898 0.716408 98.266 0.552536C98.643 0.391289 99.0464 0.310669 99.4748 0.310669C100.109 0.310669 100.682 0.497417 101.192 0.871661C101.703 1.24778 101.961 1.82039 101.961 2.58801C101.961 3.014 101.869 3.41374 101.698 3.78874C101.526 4.16373 101.296 4.4866 101.01 4.76109C100.722 5.03371 100.391 5.25046 100.015 5.41283C99.6345 5.57671 99.2319 5.65434 98.8012 5.65434Z" fill="#1E1E2C"/>
<path id="Vector_9" d="M103.727 8.32691C104.072 8.22716 104.456 8.10717 104.874 7.97667C105.294 7.84617 105.763 7.72468 106.287 7.61518C106.805 7.50231 107.39 7.4108 108.033 7.33993C108.676 7.26756 109.408 7.2323 110.223 7.2323C112.615 7.2323 114.265 7.92267 115.175 9.29928C116.085 10.6759 116.242 12.5598 115.652 14.9478L113.565 23.5727H108.999L111.021 15.1293C111.144 14.6021 111.241 14.0924 111.313 13.5945C111.385 13.101 111.381 12.666 111.297 12.2895C111.216 11.9175 111.026 11.613 110.731 11.3771C110.432 11.145 109.98 11.0284 109.366 11.0284C108.775 11.0284 108.173 11.0914 107.558 11.2129L104.585 23.5723H100.016L103.727 8.32691Z" fill="#1E1E2C"/>
</g>
</g>
<defs>
<clipPath id="clip0_1972_9037">
<rect width="116" height="24" fill="white"/>
</clipPath>
</defs>
</svg>
