<svg width="111" height="28" viewBox="0 0 111 28" fill="none" xmlns="http://www.w3.org/2000/svg">
<g id="ethereum-eth-logo-full-horizontal 1" clip-path="url(#clip0_1972_9050)">
<g id="Layer 2">
<g id="Layer 1">
<path id="Vector" d="M31.4705 16.1108C31.4689 16.2081 31.4291 16.3009 31.3598 16.3687C31.2904 16.4366 31.1972 16.4741 31.1005 16.473H24.2864C24.4611 18.1699 25.7253 19.722 27.5136 19.722C28.7367 19.722 29.6411 19.2564 30.3194 18.2734C30.351 18.2218 30.3947 18.1787 30.4467 18.148C30.4986 18.1174 30.5573 18.1 30.6175 18.0975C30.6624 18.0962 30.707 18.1042 30.7488 18.1209C30.7905 18.1376 30.8284 18.1627 30.8602 18.1946C30.8919 18.2266 30.9168 18.2648 30.9334 18.3068C30.95 18.3488 30.9579 18.3938 30.9567 18.439C30.9569 18.5014 30.939 18.5625 30.9053 18.6149C30.2167 19.8152 28.8497 20.405 27.5136 20.405C25.2217 20.405 23.5772 18.3355 23.5772 16.1315C23.5772 13.9275 25.2114 11.858 27.5136 11.858C29.8158 11.858 31.4603 13.9068 31.4705 16.1108ZM30.7408 15.79C30.5969 14.0931 29.3019 12.541 27.5136 12.541C25.7253 12.541 24.4611 14.0931 24.2864 15.79H30.7408Z" fill="#959595"/>
<path id="Vector_2" d="M39.7544 12.0237C39.8436 12.0263 39.9284 12.0631 39.9914 12.1266C40.0545 12.1901 40.091 12.2754 40.0936 12.3652C40.0949 12.4104 40.087 12.4553 40.0704 12.4973C40.0538 12.5394 40.0289 12.5775 39.9971 12.6095C39.9654 12.6414 39.9275 12.6666 39.8857 12.6833C39.844 12.7 39.7993 12.7079 39.7544 12.7066H37.925V19.9394C37.9242 20.0298 37.8882 20.1161 37.8248 20.18C37.7613 20.2439 37.6755 20.2801 37.5858 20.2809C37.4967 20.2783 37.4119 20.2415 37.3489 20.178C37.2858 20.1145 37.2493 20.0292 37.2467 19.9394V12.7066H35.4892C35.4443 12.7079 35.3996 12.7 35.3579 12.6833C35.3162 12.6666 35.2783 12.6414 35.2465 12.6095C35.2148 12.5775 35.1898 12.5394 35.1732 12.4973C35.1566 12.4553 35.1487 12.4104 35.15 12.3652C35.1508 12.2749 35.1868 12.1885 35.2502 12.1246C35.3137 12.0608 35.3995 12.0245 35.4892 12.0237H37.2467V9.38512C37.2468 9.29769 37.278 9.21319 37.3345 9.14681C37.391 9.08042 37.4692 9.03651 37.555 9.02296C37.603 9.01655 37.6517 9.02064 37.698 9.03495C37.7442 9.04925 37.7869 9.07344 37.823 9.10586C37.8591 9.13828 37.8878 9.17817 37.9072 9.22279C37.9266 9.26742 37.9361 9.31573 37.9353 9.36443V12.0237H39.7544Z" fill="#959595"/>
<path id="Vector_3" d="M50.9059 15.5211V19.898C50.9033 19.9878 50.8667 20.0731 50.8036 20.1366C50.7406 20.2001 50.6558 20.2369 50.5667 20.2395C50.5218 20.2408 50.4771 20.2328 50.4354 20.2161C50.3937 20.1994 50.3558 20.1743 50.324 20.1423C50.2923 20.1104 50.2673 20.0722 50.2507 20.0302C50.2341 19.9882 50.2262 19.9432 50.2275 19.898V15.5211C50.2275 14.0414 49.395 12.5721 47.7609 12.5721C45.6642 12.5721 44.7597 14.4139 44.8831 16.3075C44.8831 16.3592 44.9036 16.5765 44.9036 16.6076V19.8877C44.9035 19.9751 44.8723 20.0596 44.8158 20.126C44.7593 20.1924 44.6811 20.2363 44.5953 20.2498C44.5473 20.2562 44.4986 20.2522 44.4523 20.2379C44.4061 20.2235 44.3634 20.1994 44.3273 20.1669C44.2912 20.1345 44.2625 20.0946 44.2431 20.05C44.2237 20.0054 44.2142 19.9571 44.215 19.9084V5.51517C44.2158 5.42486 44.2518 5.33848 44.3152 5.27461C44.3787 5.21075 44.4645 5.17452 44.5542 5.17371C44.6433 5.17631 44.7281 5.21312 44.7911 5.2766C44.8542 5.34008 44.8908 5.42543 44.8934 5.51517V13.6482C45.4792 12.5928 46.5275 11.8788 47.7506 11.8788C49.765 11.8788 50.9059 13.6482 50.9059 15.5211Z" fill="#959595"/>
<path id="Vector_4" d="M63.1467 16.1108C63.145 16.2081 63.1052 16.3009 63.0359 16.3687C62.9665 16.4366 62.8734 16.4741 62.7767 16.473H55.9625C56.1372 18.1699 57.4014 19.722 59.1897 19.722C60.4128 19.722 61.3172 19.2564 61.9956 18.2734C62.0271 18.2218 62.0708 18.1787 62.1228 18.148C62.1748 18.1174 62.2334 18.1 62.2936 18.0975C62.3385 18.0962 62.3832 18.1042 62.4249 18.1209C62.4666 18.1376 62.5045 18.1627 62.5363 18.1946C62.568 18.2266 62.593 18.2648 62.6096 18.3068C62.6262 18.3488 62.6341 18.3938 62.6328 18.439C62.633 18.5014 62.6152 18.5625 62.5814 18.6149C61.8928 19.8152 60.5258 20.405 59.1897 20.405C56.8978 20.405 55.2533 18.3355 55.2533 16.1315C55.2533 13.9275 56.8875 11.858 59.1897 11.858C61.4714 11.858 63.1364 13.9068 63.1467 16.1108ZM62.4067 15.79C62.2628 14.0931 60.9678 12.541 59.1794 12.541C57.3911 12.541 56.1269 14.0931 55.9522 15.79H62.4067Z" fill="#959595"/>
<path id="Vector_5" d="M71.5231 12.3445C71.5296 12.4363 71.4997 12.527 71.44 12.5968C71.3804 12.6666 71.2957 12.7098 71.2045 12.717C69.2003 13.017 68.2958 14.6623 68.2958 16.5765V19.8566C68.2957 19.9441 68.2645 20.0286 68.208 20.095C68.1515 20.1613 68.0733 20.2053 67.9875 20.2188C67.9396 20.2252 67.8908 20.2211 67.8445 20.2068C67.7983 20.1925 67.7557 20.1683 67.7196 20.1359C67.6835 20.1035 67.6547 20.0636 67.6353 20.019C67.616 19.9744 67.6064 19.926 67.6072 19.8773V12.3962C67.6074 12.3088 67.6385 12.2243 67.6951 12.1579C67.7516 12.0915 67.8298 12.0476 67.9156 12.034C67.9635 12.0276 68.0123 12.0317 68.0585 12.046C68.1048 12.0603 68.1474 12.0845 68.1835 12.1169C68.2196 12.1493 68.2483 12.1892 68.2677 12.2339C68.2871 12.2785 68.2967 12.3268 68.2958 12.3755V13.8966C68.8611 12.9343 69.9814 12.0237 71.1531 12.0237C71.3278 12.0237 71.5231 12.1479 71.5231 12.3445Z" fill="#959595"/>
<path id="Vector_6" d="M82.7259 16.1108C82.7242 16.2081 82.6844 16.3009 82.6151 16.3687C82.5457 16.4366 82.4525 16.4741 82.3559 16.473H75.5417C75.7164 18.1699 76.9806 19.722 78.7689 19.722C79.992 19.722 80.8964 19.2564 81.5747 18.2734C81.6063 18.2218 81.65 18.1787 81.702 18.148C81.754 18.1174 81.8126 18.1 81.8728 18.0975C81.9177 18.0962 81.9624 18.1042 82.0041 18.1209C82.0458 18.1376 82.0837 18.1627 82.1155 18.1946C82.1472 18.2266 82.1722 18.2648 82.1888 18.3068C82.2053 18.3488 82.2132 18.3938 82.212 18.439C82.2122 18.5014 82.1943 18.5625 82.1606 18.6149C81.472 19.8152 80.105 20.405 78.7689 20.405C76.477 20.405 74.8325 18.3355 74.8325 16.1315C74.8325 13.9275 76.4667 11.858 78.7689 11.858C81.0711 11.858 82.7156 13.9068 82.7259 16.1108ZM81.9961 15.79C81.8522 14.0931 80.5572 12.541 78.7689 12.541C76.9806 12.541 75.7164 14.0931 75.5417 15.79H81.9961Z" fill="#959595"/>
<path id="Vector_7" d="M93.7436 12.4272V19.9394C93.741 20.0292 93.7045 20.1145 93.6414 20.178C93.5784 20.2415 93.4936 20.2783 93.4045 20.2809C93.3596 20.2822 93.3149 20.2742 93.2732 20.2575C93.2314 20.2408 93.1935 20.2157 93.1618 20.1837C93.13 20.1518 93.1051 20.1136 93.0885 20.0716C93.0719 20.0296 93.064 19.9846 93.0653 19.9394V18.5115C92.5 19.6394 91.5031 20.4568 90.2286 20.4568C88.2039 20.4568 87.0836 18.6874 87.0836 16.8145V12.4169C87.0844 12.3266 87.1204 12.2402 87.1838 12.1763C87.2473 12.1125 87.3331 12.0762 87.4228 12.0754C87.5119 12.078 87.5967 12.1148 87.6597 12.1783C87.7228 12.2418 87.7594 12.3272 87.762 12.4169V16.8145C87.762 18.2942 88.5945 19.7635 90.2286 19.7635C92.5206 19.7635 93.0653 17.6009 93.0653 15.2107V12.4065C93.066 12.3512 93.08 12.2968 93.1059 12.248C93.1318 12.1992 93.1689 12.1573 93.2142 12.1259C93.2595 12.0945 93.3116 12.0744 93.3662 12.0675C93.4207 12.0605 93.4761 12.0668 93.5278 12.0858C93.5924 12.116 93.647 12.1642 93.6853 12.2247C93.7235 12.2852 93.7438 12.3555 93.7436 12.4272Z" fill="#959595"/>
<path id="Vector_8" d="M111 15.49V19.8877C110.997 19.9774 110.961 20.0627 110.898 20.1262C110.835 20.1897 110.75 20.2265 110.661 20.2291C110.616 20.2304 110.571 20.2224 110.53 20.2057C110.488 20.189 110.45 20.1639 110.418 20.132C110.386 20.1 110.361 20.0618 110.345 20.0198C110.328 19.9778 110.32 19.9328 110.322 19.8877V15.49C110.322 14.0103 109.489 12.5617 107.855 12.5617C105.799 12.5617 105.018 14.776 105.018 16.4937V19.8877C105.016 19.9774 104.979 20.0627 104.916 20.1262C104.853 20.1897 104.768 20.2265 104.679 20.2291C104.634 20.2304 104.59 20.2224 104.548 20.2057C104.506 20.189 104.468 20.1639 104.437 20.132C104.405 20.1 104.38 20.0618 104.363 20.0198C104.347 19.9778 104.339 19.9328 104.34 19.8877V15.49C104.34 14.0103 103.508 12.5617 101.873 12.5617C99.7972 12.5617 98.9442 14.2069 99.0161 16.4006C99.0161 16.4523 99.0367 16.5455 99.0161 16.5765V19.8773C99.0159 19.9647 98.9848 20.0492 98.9283 20.1156C98.8718 20.182 98.7936 20.2259 98.7078 20.2395C98.6598 20.2459 98.6111 20.2418 98.5648 20.2275C98.5186 20.2132 98.4759 20.189 98.4398 20.1566C98.4037 20.1241 98.375 20.0843 98.3556 20.0396C98.3362 19.995 98.3266 19.9467 98.3275 19.898V12.3962C98.3277 12.3087 98.3588 12.2242 98.4153 12.1578C98.4719 12.0915 98.55 12.0475 98.6358 12.034C98.6838 12.0276 98.7326 12.0317 98.7788 12.046C98.8251 12.0603 98.8677 12.0845 98.9038 12.1169C98.9399 12.1493 98.9686 12.1892 98.988 12.2338C99.0074 12.2784 99.017 12.3268 99.0161 12.3755V13.6275C99.602 12.5721 100.65 11.8788 101.873 11.8788C103.261 11.8788 104.34 12.7687 104.782 14.0621C105.347 12.779 106.447 11.8788 107.855 11.8788C109.859 11.8788 111 13.6275 111 15.49Z" fill="#959595"/>
<path id="Vector_9" opacity="0.6" d="M8.53056 10.3577L0 14.2586L8.53056 19.3392L17.0714 14.2586L8.53056 10.3577Z" fill="black"/>
<path id="Vector_10" opacity="0.45" d="M0 14.2587L8.53056 19.3392V0L0 14.2587Z" fill="black"/>
<path id="Vector_11" opacity="0.8" d="M8.53055 0V19.3392L17.0714 14.2587L8.53055 0Z" fill="black"/>
<path id="Vector_12" opacity="0.45" d="M0 15.8936L8.53056 28V20.9638L0 15.8936Z" fill="black"/>
<path id="Vector_13" opacity="0.8" d="M8.53055 20.9638V28L17.0714 15.8936L8.53055 20.9638Z" fill="black"/>
</g>
</g>
</g>
<defs>
<clipPath id="clip0_1972_9050">
<rect width="111" height="28" fill="white"/>
</clipPath>
</defs>
</svg>
