<svg width="173" height="48" viewBox="0 0 173 48" fill="none" xmlns="http://www.w3.org/2000/svg">
<g clip-path="url(#clip0_4506_238)">
<path d="M15.3392 0L15.0117 1.09353V32.8251L15.3392 33.1462L30.3347 24.4397L15.3392 0Z" fill="#343434"/>
<path d="M15.3393 0L0.34375 24.4397L15.3393 33.1464V17.7448V0Z" fill="#8C8C8C"/>
<path d="M15.3392 35.9352L15.1546 36.1562V47.4597L15.3392 47.9893L30.3437 27.233L15.3392 35.9352Z" fill="#3C3C3B"/>
<path d="M15.3393 47.9891V35.935L0.34375 27.2328L15.3393 47.9891Z" fill="#8C8C8C"/>
<path d="M15.3392 33.1462L30.3345 24.4398L15.3392 17.7449V33.1462Z" fill="#141414"/>
<path d="M0.343842 24.4398L15.3392 33.1462V17.7449L0.343842 24.4398Z" fill="#393939"/>
</g>
<path d="M46.9418 31V16.4545H56.0611V18.3438H49.1364V22.7756H55.5852V24.6577H49.1364V29.1108H56.1463V31H46.9418ZM60.4752 18.3438V16.4545H71.7323V18.3438H67.194V31H65.0065V18.3438H60.4752ZM76.4199 31V16.4545H78.6145V22.7756H85.8659V16.4545H88.0676V31H85.8659V24.6577H78.6145V31H76.4199ZM93.4636 31V16.4545H102.583V18.3438H95.6582V22.7756H102.107V24.6577H95.6582V29.1108H102.668V31H93.4636ZM107.714 31V16.4545H112.899C114.026 16.4545 114.961 16.6487 115.704 17.0369C116.453 17.4252 117.011 17.9626 117.381 18.6491C117.75 19.331 117.935 20.1193 117.935 21.0142C117.935 21.9044 117.748 22.688 117.374 23.3651C117.004 24.0374 116.445 24.5606 115.697 24.9347C114.954 25.3087 114.019 25.4957 112.892 25.4957H108.964V23.6065H112.693C113.403 23.6065 113.981 23.5047 114.426 23.3011C114.876 23.0975 115.205 22.8016 115.413 22.4134C115.622 22.0251 115.726 21.5587 115.726 21.0142C115.726 20.465 115.619 19.9891 115.406 19.5866C115.198 19.1842 114.869 18.8764 114.419 18.6634C113.974 18.4455 113.389 18.3366 112.665 18.3366H109.909V31H107.714ZM114.895 24.4375L118.489 31H115.989L112.466 24.4375H114.895ZM122.805 31V16.4545H131.924V18.3438H125V22.7756H131.449V24.6577H125V29.1108H132.01V31H122.805ZM146.41 16.4545H148.611V26.0213C148.611 27.0393 148.372 27.9413 147.894 28.7273C147.416 29.5085 146.743 30.1241 145.877 30.5739C145.01 31.0189 143.995 31.2415 142.83 31.2415C141.67 31.2415 140.657 31.0189 139.79 30.5739C138.924 30.1241 138.251 29.5085 137.773 28.7273C137.295 27.9413 137.056 27.0393 137.056 26.0213V16.4545H139.25V25.8438C139.25 26.5019 139.395 27.0866 139.684 27.598C139.977 28.1094 140.392 28.5118 140.927 28.8054C141.462 29.0942 142.096 29.2386 142.83 29.2386C143.569 29.2386 144.205 29.0942 144.74 28.8054C145.28 28.5118 145.692 28.1094 145.976 27.598C146.265 27.0866 146.41 26.5019 146.41 25.8438V16.4545ZM154.002 16.4545H156.665L161.296 27.7614H161.466L166.097 16.4545H168.76V31H166.672V20.4744H166.537L162.248 30.9787H160.515L156.225 20.4673H156.09V31H154.002V16.4545Z" fill="#959595"/>
<defs>
<clipPath id="clip0_4506_238">
<rect width="30" height="48" fill="white" transform="translate(0.34375)"/>
</clipPath>
</defs>
</svg>
