<svg width="96" height="42" viewBox="0 0 96 42" fill="none" xmlns="http://www.w3.org/2000/svg">
<g id="Frame 4147">
<path id="_92653320" fill-rule="evenodd" clip-rule="evenodd" d="M0 7.53579C0 3.37419 3.33324 0 7.44285 0H88.5572C92.6686 0 96 3.37419 96 7.53579V34.466C96 38.6252 92.6686 42 88.5572 42H7.44285C3.33324 42 0 38.6252 0 34.466V7.53579Z" fill="#000268"/>
<path id="_92186184" fill-rule="evenodd" clip-rule="evenodd" d="M3.05466 7.79363V34.2106C3.05466 36.8107 5.13813 38.9195 7.70813 38.9195H50.2047V3.08472H7.70813C5.13813 3.08472 3.05466 5.19349 3.05466 7.79363ZM61.185 20.8702C61.185 22.5521 60.3674 23.708 59.0137 23.708C57.8177 23.708 56.8208 22.5521 56.8208 21.0118C56.8208 19.4309 57.6976 18.2555 59.0137 18.2555C60.4092 18.2555 61.185 19.4716 61.185 20.8702ZM53.2366 30.5166H56.8208V24.7806H56.8608C57.5398 26.0375 58.8953 26.5033 60.1498 26.5033C63.2368 26.5033 64.89 23.9099 64.89 20.7887C64.89 18.236 63.3169 15.4577 60.4475 15.4577C58.8153 15.4577 57.3013 16.1272 56.5823 17.6072H56.5423V15.7028H53.2366V30.5166ZM69.7855 22.9163C69.7855 21.9039 70.7406 21.5202 71.9574 21.5202C72.4948 21.5202 73.0136 21.5585 73.4714 21.5804C73.4714 22.816 72.6149 24.0728 71.2594 24.0728C70.4226 24.0728 69.7855 23.6478 69.7855 22.9163ZM77.0156 26.2607C76.8572 25.4307 76.8171 24.5982 76.8171 23.7682V19.8364C76.8171 16.6143 74.5274 15.4577 71.8774 15.4577C70.3443 15.4577 69.0097 15.6809 67.7343 16.2087L67.7952 18.6823C68.788 18.1138 69.9457 17.8906 71.101 17.8906C72.3937 17.8906 73.4499 18.2767 73.4714 19.7161C73.0136 19.6346 72.3746 19.5725 71.7973 19.5725C69.8865 19.5725 66.4397 19.9587 66.4397 23.1802C66.4397 25.4714 68.2716 26.5033 70.3234 26.5033C71.7973 26.5033 72.7942 25.9177 73.6106 24.5982H73.6507C73.6507 25.1473 73.7092 25.6921 73.7308 26.2607H77.0156ZM78.6286 30.5166C79.3661 30.6796 80.1025 30.7616 80.8591 30.7616C84.1464 30.7616 84.9221 28.1871 85.9382 25.5316L89.7442 15.7028H86.1575L84.0262 22.5928H83.9862L81.7551 15.7028H77.8923L82.0946 26.5033C81.8352 27.4361 81.1586 27.9639 80.2812 27.9639C79.7816 27.9639 79.3453 27.9019 78.8665 27.7407L78.6286 30.5166Z" fill="white"/>
<path id="_47303032" fill-rule="evenodd" clip-rule="evenodd" d="M11.8113 20.8915C11.8113 19.4522 12.5094 18.2555 13.844 18.2555C15.4572 18.2555 16.1337 19.5726 16.1337 20.748C16.1337 22.3698 15.1177 23.4637 13.844 23.4637C12.7688 23.4637 11.8113 22.5327 11.8113 20.8915ZM19.6002 15.7029H16.3531V17.6073H16.3154C15.5563 16.3097 14.3204 15.4578 12.7879 15.4578C9.56167 15.4578 8.10696 17.811 8.10696 20.9517C8.10696 24.0729 9.88024 26.2608 12.7264 26.2608C14.1626 26.2608 15.3579 25.6922 16.2138 24.4567H16.2538V25.0252C16.2538 27.0914 15.1386 28.0844 13.0683 28.0844C11.5735 28.0844 10.656 27.7603 9.56167 27.2136L9.38238 30.0922C10.2174 30.3969 11.632 30.7617 13.3468 30.7617C17.5299 30.7617 19.6002 29.3625 19.6002 25.0252V15.7029ZM25.66 11.3053H22.074V13.9802H25.66V11.3053ZM22.0758 26.2608H25.66V15.7029H22.0758V26.2608ZM35.6436 15.58C35.2849 15.5204 34.8463 15.4578 34.4291 15.4578C32.8751 15.4578 31.9792 16.3097 31.3612 17.6481H31.3212V15.7029H28.0549V26.2608H31.6397V21.8036C31.6397 19.7356 32.5775 18.5 34.2498 18.5C34.6694 18.5 35.0656 18.5 35.4643 18.6198L35.6436 15.58ZM41.817 23.9507C40.1638 23.9507 39.4872 22.5522 39.4872 20.9924C39.4872 19.4115 40.1638 18.0129 41.817 18.0129C43.4719 18.0129 44.1491 19.4115 44.1491 20.9924C44.1491 22.5522 43.4719 23.9507 41.817 23.9507ZM41.817 26.5034C45.2434 26.5034 47.8535 24.4785 47.8535 20.9924C47.8535 17.4851 45.2434 15.4578 41.817 15.4578C38.3911 15.4578 35.7829 17.4851 35.7829 20.9924C35.7829 24.4785 38.3911 26.5034 41.817 26.5034Z" fill="#FF0007"/>
</g>
</svg>
