<svg width="99" height="46" viewBox="0 0 99 46" fill="none" xmlns="http://www.w3.org/2000/svg">
<path fill-rule="evenodd" clip-rule="evenodd" d="M2.22842 10.0762C2.22842 6.0816 5.50023 2.84283 9.5341 2.84283H89.1535C93.189 2.84283 96.4591 6.0816 96.4591 10.0762V35.9255C96.4591 39.9178 93.189 43.1571 89.1535 43.1571H9.5341C5.50023 43.1571 2.22842 39.9178 2.22842 35.9255V10.0762Z" fill="#959595"/>
<path fill-rule="evenodd" clip-rule="evenodd" d="M5.22684 10.3237V35.6804C5.22684 38.1761 7.27191 40.2003 9.79454 40.2003H51.5079V5.80377H9.79454C7.27191 5.80377 5.22684 7.82791 5.22684 10.3237ZM62.2858 22.8754C62.2858 24.4898 61.4832 25.5993 60.1545 25.5993C58.9806 25.5993 58.002 24.4898 58.002 23.0114C58.002 21.4938 58.8627 20.3656 60.1545 20.3656C61.5243 20.3656 62.2858 21.533 62.2858 22.8754ZM54.4839 32.1346H58.002V26.6289H58.0413C58.7078 27.8354 60.0383 28.2824 61.2697 28.2824C64.2998 28.2824 65.9225 25.7931 65.9225 22.7972C65.9225 20.3469 64.3784 17.6802 61.5619 17.6802C59.9597 17.6802 58.4737 18.3228 57.768 19.7434H57.7286V17.9154H54.4839V32.1346ZM70.7278 24.8394C70.7278 23.8676 71.6653 23.4993 72.8597 23.4993C73.3871 23.4993 73.8963 23.5361 74.3457 23.5571C74.3457 24.7431 73.505 25.9495 72.1745 25.9495C71.3532 25.9495 70.7278 25.5416 70.7278 24.8394ZM77.8246 28.0496C77.6691 27.2529 77.6298 26.4538 77.6298 25.6571V21.8831C77.6298 18.7903 75.3823 17.6802 72.7811 17.6802C71.2763 17.6802 69.9663 17.8944 68.7144 18.401L68.7742 20.7753C69.7486 20.2296 70.885 20.0154 72.019 20.0154C73.288 20.0154 74.3246 20.3861 74.3457 21.7676C73.8963 21.6894 73.2692 21.6298 72.7025 21.6298C70.8269 21.6298 67.4437 22.0005 67.4437 25.0927C67.4437 27.292 69.2418 28.2824 71.2558 28.2824C72.7025 28.2824 73.681 27.7204 74.4824 26.4538H74.5217C74.5217 26.9809 74.5792 27.5038 74.6003 28.0496H77.8246ZM79.4079 32.1346C80.1319 32.2911 80.8547 32.3699 81.5973 32.3699C84.824 32.3699 85.5854 29.8986 86.5828 27.3497L90.3186 17.9154H86.7981L84.706 24.5289H84.6667L82.4767 17.9154H78.6852L82.81 28.2824C82.5554 29.1778 81.8913 29.6844 81.0301 29.6844C80.5396 29.6844 80.1114 29.6249 79.6414 29.4702L79.4079 32.1346Z" fill="white"/>
<path fill-rule="evenodd" clip-rule="evenodd" d="M13.822 22.8958C13.822 21.5143 14.5072 20.3656 15.8172 20.3656C17.4006 20.3656 18.0647 21.6298 18.0647 22.758C18.0647 24.3147 17.0674 25.3647 15.8172 25.3647C14.7618 25.3647 13.822 24.4711 13.822 22.8958ZM21.4673 17.9154H18.28V19.7434H18.243C17.498 18.4979 16.2848 17.6802 14.7806 17.6802C11.6138 17.6802 10.1859 19.9389 10.1859 22.9536C10.1859 25.9495 11.9265 28.0496 14.7202 28.0496C16.1299 28.0496 17.3032 27.5038 18.1433 26.3178H18.1826V26.8635C18.1826 28.8468 17.0879 29.8 15.0557 29.8C13.5885 29.8 12.688 29.4889 11.6138 28.9642L11.4378 31.7272C12.2574 32.0196 13.646 32.3699 15.3291 32.3699C19.4351 32.3699 21.4673 31.0268 21.4673 26.8635V17.9154ZM27.4154 13.6943H23.8955V16.2619H27.4154V13.6943ZM23.8973 28.0496H27.4154V17.9154H23.8973V28.0496ZM37.215 17.7975C36.863 17.7403 36.4324 17.6802 36.0229 17.6802C34.4976 17.6802 33.6182 18.4979 33.0116 19.7825H32.9722V17.9154H29.7662V28.0496H33.2849V23.7713C33.2849 21.7863 34.2054 20.6003 35.8469 20.6003C36.2587 20.6003 36.6477 20.6003 37.039 20.7152L37.215 17.7975ZM43.2746 25.8322C41.6519 25.8322 40.9878 24.4898 40.9878 22.9927C40.9878 21.4752 41.6519 20.1327 43.2746 20.1327C44.8991 20.1327 45.5637 21.4752 45.5637 22.9927C45.5637 24.4898 44.8991 25.8322 43.2746 25.8322ZM43.2746 28.2824C46.6379 28.2824 49.1998 26.3389 49.1998 22.9927C49.1998 19.6261 46.6379 17.6802 43.2746 17.6802C39.9119 17.6802 37.3517 19.6261 37.3517 22.9927C37.3517 26.3389 39.9119 28.2824 43.2746 28.2824Z" fill="#1E1E2C"/>
</svg>
