<svg width="72" height="64" viewBox="0 0 72 64" fill="none" xmlns="http://www.w3.org/2000/svg">
<g id="ideal-logo 1" clip-path="url(#clip0_1972_9078)">
<g id="Group">
<g id="Group_2">
<path id="Vector" d="M0 4.74426V59.2557C0 61.8651 2.11696 64 4.70434 64H36.9997C61.4152 64 72 50.2179 72 31.9288C72 13.7346 61.4152 0 36.9997 0H4.70434C2.11696 0 0 2.13491 0 4.74426Z" fill="white"/>
<path id="Vector_2" d="M21.6165 13.3789V53.6576H38.999C54.7821 53.6576 61.6269 44.6672 61.6269 31.9526C61.6269 19.7836 54.7821 10.3425 38.999 10.3425H24.6272C22.9572 10.3425 21.6165 11.7184 21.6165 13.3789Z" fill="#CC0066"/>
<g id="Group_3">
<g id="Group_4">
<path id="Vector_3" d="M36.9997 59.659H8.91473C6.42143 59.659 4.39856 57.619 4.39856 55.1046V8.91923C4.39856 6.40478 6.42143 4.36475 8.91473 4.36475H36.9997C63.6498 4.36475 67.625 21.6576 67.625 31.9526C67.625 49.8147 56.7344 59.659 36.9997 59.659ZM8.91473 5.88291C7.24469 5.88291 5.90395 7.23502 5.90395 8.91923V55.1046C5.90395 56.7888 7.24469 58.1409 8.91473 58.1409H36.9997C55.77 58.1409 66.1196 48.8421 66.1196 31.9526C66.1196 9.27505 47.8667 5.88291 36.9997 5.88291H8.91473Z" fill="black"/>
</g>
</g>
</g>
<g id="Group_5">
<path id="Vector_4" d="M27.7321 26.5204C28.3437 26.5204 28.9082 26.6153 29.4492 26.8051C29.9902 26.9949 30.4371 27.3032 30.837 27.6828C31.2133 28.086 31.5191 28.5842 31.7543 29.1535C31.966 29.7465 32.0836 30.4344 32.0836 31.241C32.0836 31.9526 31.9895 32.5931 31.8249 33.1861C31.6367 33.7791 31.378 34.301 31.0251 34.728C30.6723 35.155 30.2254 35.4871 29.6844 35.748C29.1434 35.9852 28.5083 36.1275 27.7791 36.1275H23.6628V26.4967H27.7321V26.5204ZM27.591 34.3722C27.8968 34.3722 28.179 34.3247 28.4848 34.2298C28.7671 34.135 29.0258 33.9689 29.2375 33.7317C29.4492 33.4945 29.6374 33.2098 29.7785 32.8303C29.9196 32.4507 29.9902 32.0238 29.9902 31.4782C29.9902 31.0037 29.9431 30.553 29.8491 30.1735C29.755 29.794 29.5903 29.4381 29.3786 29.1772C29.1669 28.9163 28.8847 28.6791 28.5318 28.5367C28.179 28.3944 27.7556 28.3232 27.2381 28.3232H25.7328V34.3959H27.591V34.3722Z" fill="white"/>
<path id="Vector_5" d="M40.575 26.5204V28.2995H35.5413V30.3633H40.1751V32H35.5413V34.3484H40.6926V36.1275H33.4479V26.4967H40.575V26.5204Z" fill="white"/>
<path id="Vector_6" d="M47.7726 26.5204L51.3479 36.1512H49.1604L48.4312 34.0163H44.8559L44.1032 36.1512H41.9863L45.5851 26.5204H47.7726ZM47.8902 32.427L46.6906 28.8925H46.6671L45.4204 32.427H47.8902Z" fill="white"/>
<path id="Vector_7" d="M54.7586 26.5204V34.3721H59.4159V36.1512H52.6651V26.5204H54.7586Z" fill="white"/>
</g>
<g id="Group_6">
<path id="Vector_8" d="M13.7602 35.7717C16.1895 35.7717 18.1588 33.7857 18.1588 31.3358C18.1588 28.8859 16.1895 26.8999 13.7602 26.8999C11.3309 26.8999 9.36163 28.8859 9.36163 31.3358C9.36163 33.7857 11.3309 35.7717 13.7602 35.7717Z" fill="black"/>
</g>
<path id="Vector_9" d="M17.0768 53.6576C13.3839 53.6576 10.4201 50.645 10.4201 46.9444V41.702C10.4201 39.8518 11.902 38.3336 13.7602 38.3336C15.5949 38.3336 17.1003 39.8281 17.1003 41.702V53.6576H17.0768Z" fill="black"/>
</g>
</g>
<defs>
<clipPath id="clip0_1972_9078">
<rect width="72" height="64" fill="white"/>
</clipPath>
</defs>
</svg>
