<svg width="70" height="54" viewBox="0 0 70 54" fill="none" xmlns="http://www.w3.org/2000/svg">
<g id="mastercard 1" clip-path="url(#clip0_1972_9122)">
<path id="Vector" d="M12.6178 53.8802V50.2922C12.6178 48.9162 11.7804 48.0196 10.4058 48.0196C9.6839 48.0196 8.91144 48.2593 8.37288 49.0303C7.95417 48.3719 7.36219 48.0196 6.45978 48.0196C6.12426 48.0051 5.79039 48.074 5.48802 48.2201C5.18566 48.3663 4.92424 48.5851 4.72716 48.857V48.1351H3.59085V53.8759H4.72716V50.5911C4.72716 49.5804 5.32491 49.0967 6.16235 49.0967C6.99978 49.0967 7.4777 49.6353 7.4777 50.5911V53.8802H8.61401V50.5911C8.61401 49.5804 9.21176 49.0967 10.0492 49.0967C10.8866 49.0967 11.3645 49.6353 11.3645 50.5911V53.8802H12.6178ZM31.2752 48.1986H29.1817V46.466H28.0482V48.1986H26.8527V49.2093H28.0482V51.9064C28.0482 53.2218 28.5261 54 29.9613 54C30.5051 53.9887 31.0378 53.845 31.5135 53.5813L31.154 52.5706C30.8314 52.7723 30.4572 52.8761 30.0768 52.8695C29.4791 52.8695 29.1802 52.51 29.1802 51.9122V49.1631H31.2738V48.2059L31.2752 48.1986ZM41.9193 48.0196C41.6098 48.0127 41.3038 48.0862 41.0312 48.233C40.7587 48.3798 40.5289 48.5948 40.3643 48.857V48.1351H39.228V53.8759H40.3643V50.6517C40.3643 49.6945 40.8422 49.0967 41.6204 49.0967C41.883 49.1074 42.1436 49.1476 42.3972 49.2166L42.7567 48.1394C42.4825 48.0703 42.2019 48.0301 41.9193 48.0196ZM25.8334 48.6174C25.2356 48.1986 24.3982 48.0196 23.5015 48.0196C22.0664 48.0196 21.1697 48.678 21.1697 49.8143C21.1697 50.7716 21.8281 51.3087 23.0828 51.4892L23.6806 51.5484C24.339 51.6682 24.7577 51.9079 24.7577 52.2068C24.7577 52.6255 24.2798 52.9287 23.3817 52.9287C22.696 52.9428 22.0243 52.7329 21.4686 52.3309L20.8709 53.2276C21.7083 53.8253 22.7248 53.9495 23.3254 53.9495C25.0003 53.9495 25.8969 53.1727 25.8969 52.0956C25.8969 51.0849 25.175 50.6012 23.9231 50.4207L23.3254 50.3615C22.7868 50.3023 22.3147 50.1218 22.3147 49.7638C22.3147 49.3451 22.7926 49.0418 23.451 49.0418C24.1729 49.0418 24.8862 49.3407 25.2457 49.5198L25.8334 48.6174ZM43.1754 51.0098C43.1754 52.7424 44.3118 54 46.1657 54C47.0031 54 47.6009 53.821 48.1986 53.3416L47.6008 52.445C47.1776 52.7878 46.651 52.9775 46.1065 52.9836C45.0958 52.9836 44.3118 52.2068 44.3118 51.0705C44.3118 49.9341 45.0857 49.1631 46.1065 49.1631C46.651 49.1692 47.1776 49.3589 47.6008 49.7017L48.1986 48.8051C47.6009 48.3271 47.0031 48.1467 46.1657 48.1467C44.371 48.0268 43.1754 49.283 43.1754 51.017V51.0098ZM35.1621 48.0196C33.4872 48.0196 32.3509 49.2151 32.3509 51.0098C32.3509 52.8045 33.5464 54 35.2805 54C36.1241 54.0178 36.9479 53.7434 37.6123 53.2232L37.0145 52.3858C36.534 52.7581 35.9473 52.9675 35.3397 52.9836C34.5629 52.9836 33.7254 52.5056 33.6071 51.4892H37.8534V51.0113C37.8534 49.2166 36.7763 48.021 35.1621 48.021V48.0196ZM35.1029 49.0967C35.9403 49.0967 36.5381 49.6353 36.5973 50.5319H33.4887C33.6677 49.6945 34.2106 49.0967 35.1029 49.0967ZM19.6147 51.0098V48.1394H18.4784V48.8614C18.0597 48.3228 17.4677 48.0239 16.6245 48.0239C15.0103 48.0239 13.8133 49.2801 13.8133 51.0141C13.8133 52.7482 15.0088 54.0044 16.6245 54.0044C17.4619 54.0044 18.0597 53.7055 18.4784 53.1669V53.8889H19.6147V51.0098ZM15.0103 51.0098C15.0103 49.9327 15.6687 49.0967 16.805 49.0967C17.8821 49.0967 18.5376 49.9341 18.5376 51.0098C18.5376 52.1461 17.8157 52.9229 16.805 52.9229C15.6687 52.9821 15.0103 52.0855 15.0103 51.0098ZM59.2036 48.0196C58.8941 48.0127 58.5881 48.0862 58.3156 48.233C58.043 48.3798 57.8132 48.5948 57.6486 48.857V48.1351H56.5123V53.8759H57.6472V50.6517C57.6472 49.6945 58.1251 49.0967 58.9033 49.0967C59.1659 49.1074 59.4265 49.1476 59.6801 49.2166L60.0396 48.1394C59.7654 48.0703 59.4848 48.0301 59.2022 48.0196H59.2036ZM54.7782 51.0098V48.1394H53.6419V48.8614C53.2232 48.3228 52.6312 48.0239 51.788 48.0239C50.1738 48.0239 48.9768 49.2801 48.9768 51.0141C48.9768 52.7482 50.1723 54.0044 51.788 54.0044C52.6255 54.0044 53.2232 53.7055 53.6419 53.1669V53.8889H54.7782V51.0098ZM50.1738 51.0098C50.1738 49.9327 50.8322 49.0967 51.9685 49.0967C53.0456 49.0967 53.7011 49.9341 53.7011 51.0098C53.7011 52.1461 52.9792 52.9229 51.9685 52.9229C50.8322 52.9821 50.1738 52.0855 50.1738 51.0098ZM66.3204 51.0098V45.8668H65.1841V48.857C64.7653 48.3185 64.1734 48.0196 63.3302 48.0196C61.7159 48.0196 60.519 49.2758 60.519 51.0098C60.519 52.7439 61.7145 54 63.3302 54C64.1676 54 64.7653 53.7012 65.1841 53.1626V53.8845H66.3204V51.0098ZM61.7159 51.0098C61.7159 49.9327 62.3743 49.0967 63.5106 49.0967C64.5877 49.0967 65.2433 49.9341 65.2433 51.0098C65.2433 52.1461 64.5213 52.9229 63.5106 52.9229C62.3729 52.9836 61.7145 52.0869 61.7145 51.0098H61.7159Z" fill="black"/>
<path id="Vector_2" d="M24.518 4.60449H45.269V38.4512H24.518V4.60449Z" fill="#FF5F00"/>
<g id="Group">
<path id="Vector_3" d="M26.6116 21.5278C26.6123 18.2717 27.3496 15.058 28.7684 12.1273C30.1871 9.19654 32.2505 6.62474 34.804 4.60445C31.6284 2.10762 27.8143 0.554693 23.7977 0.123182C19.7812 -0.308329 15.7242 0.398992 12.0907 2.16429C8.45715 3.92959 5.39361 6.68162 3.25029 10.1058C1.10696 13.53 -0.0296631 17.4882 -0.0296631 21.5278C-0.0296631 25.5675 1.10696 29.5256 3.25029 32.9498C5.39361 36.374 8.45715 39.1261 12.0907 40.8914C15.7242 42.6566 19.7812 43.364 23.7977 42.9325C27.8143 42.5009 31.6284 40.948 34.804 38.4512C32.2505 36.4309 30.1871 33.8591 28.7684 30.9284C27.3496 27.9976 26.6123 24.7839 26.6116 21.5278Z" fill="#EB001B"/>
<path id="Vector_4" d="M69.6687 21.5279C69.6716 25.5646 68.5384 29.5206 66.3985 32.9436C64.2587 36.3665 61.1987 39.118 57.5686 40.8836C53.9384 42.6491 49.8846 43.3573 45.8709 42.9271C41.8572 42.497 38.0455 40.9459 34.8719 38.4512C37.426 36.4314 39.4898 33.8598 40.9087 30.9289C42.3275 27.9981 43.0645 24.7841 43.0645 21.5279C43.0645 18.2716 42.3275 15.0576 40.9087 12.1268C39.4898 9.19594 37.426 6.62425 34.8719 4.60448C38.0455 2.10981 41.8572 0.558703 45.8709 0.128559C49.8846 -0.301584 53.9384 0.406606 57.5686 2.17213C61.1987 3.93766 64.2587 6.68923 66.3985 10.1121C68.5384 13.5351 69.6716 17.4911 69.6687 21.5279Z" fill="#F79E1B"/>
</g>
</g>
<defs>
<clipPath id="clip0_1972_9122">
<rect width="69.6672" height="54" fill="white"/>
</clipPath>
</defs>
</svg>
