<svg width="168" height="36" viewBox="0 0 168 36" fill="none" xmlns="http://www.w3.org/2000/svg">
<g clip-path="url(#clip0_1031_5675)">
<path d="M30.1421 11.1924C29.4212 10.7484 28.484 10.7484 27.691 11.1924L22.0677 14.5961L18.2468 16.816L12.6236 20.2199C11.9027 20.6638 10.9655 20.6638 10.1725 20.2199L5.70274 17.556C4.98181 17.1121 4.47716 16.2981 4.47716 15.4101V10.1564C4.47716 9.26849 4.90971 8.45455 5.70274 8.01057L10.1004 5.42072C10.8213 4.97674 11.7585 4.97674 12.5515 5.42072L16.9492 8.01057C17.6701 8.45455 18.1747 9.26849 18.1747 10.1564V13.5602L21.9956 11.2664V7.86258C21.9956 6.97463 21.5632 6.16068 20.7701 5.71671L12.6236 0.832981C11.9027 0.389006 10.9655 0.389006 10.1725 0.832981L1.88183 5.71671C1.08881 6.16068 0.65625 6.97463 0.65625 7.86258V17.704C0.65625 18.5919 1.08881 19.4059 1.88183 19.8499L10.1725 24.7336C10.8934 25.1776 11.8307 25.1776 12.6236 24.7336L18.2468 21.4037L22.0677 19.1099L27.691 15.7801C28.4119 15.3362 29.3491 15.3362 30.1421 15.7801L34.5397 18.37C35.2607 18.814 35.7654 19.6279 35.7654 20.5158V25.7696C35.7654 26.6575 35.3328 27.4714 34.5397 27.9154L30.1421 30.5793C29.4212 31.0233 28.484 31.0233 27.691 30.5793L23.2934 27.9894C22.5724 27.5455 22.0677 26.7315 22.0677 25.8435V22.4398L18.2468 24.7336V28.1374C18.2468 29.0253 18.6794 29.8393 19.4725 30.2833L27.7631 35.1671C28.484 35.611 29.4212 35.611 30.2142 35.1671L38.5049 30.2833C39.2258 29.8393 39.7305 29.0253 39.7305 28.1374V18.296C39.7305 17.4081 39.2979 16.5941 38.5049 16.1501L30.1421 11.1924Z" fill="#959595"/>
<path d="M54.9522 32.3528V24.1824C55.8313 25.2981 57.4268 25.9215 59.2829 25.9215C64.0043 25.9215 67.1954 22.5418 67.1954 17.3903C67.1954 12.2387 64.2648 8.85901 59.6736 8.85901C57.5571 8.85901 55.929 9.64651 54.9522 10.9262V9.12151H50.426V32.3528H54.9522ZM58.7293 21.984C56.2872 21.984 54.6917 20.1465 54.6917 17.3903C54.6917 14.6012 56.2872 12.7637 58.7293 12.7637C61.1063 12.7637 62.7344 14.6012 62.7344 17.3903C62.7344 20.1465 61.1063 21.984 58.7293 21.984Z" fill="white"/>
<path d="M77.4729 25.9215C82.52 25.9215 86.1344 22.3121 86.1344 17.3903C86.1344 12.4684 82.52 8.85901 77.4729 8.85901C72.4259 8.85901 68.8115 12.4684 68.8115 17.3903C68.8115 22.3121 72.4259 25.9215 77.4729 25.9215ZM77.4729 21.984C75.0308 21.984 73.3702 20.1137 73.3702 17.3903C73.3702 14.634 75.0308 12.7637 77.4729 12.7637C79.9152 12.7637 81.5758 14.634 81.5758 17.3903C81.5758 20.1137 79.9152 21.984 77.4729 21.984Z" fill="white"/>
<path d="M93.3969 25.659V1.93555H88.8708V25.659H93.3969Z" fill="white"/>
<path d="M107.002 9.12146L103.583 19.7855L100.132 9.12146H95.5081L101.467 25.5277L99.0574 32.3527H103.388L105.7 25.5933L111.659 9.12146H107.002Z" fill="white"/>
<path d="M124.37 10.7621C123.458 9.6137 121.831 8.85901 119.844 8.85901C115.057 8.85901 112.16 12.2387 112.16 17.3903C112.16 22.5418 115.057 25.9215 119.909 25.9215C121.831 25.9215 123.555 25.1996 124.403 23.9856V26.1512C124.403 27.6934 123.394 28.7762 122.025 28.7762H114.471V32.3528H122.742C126.454 32.3528 128.929 30.0887 128.929 26.6434V9.12151H124.37V10.7621ZM120.625 21.984C118.216 21.984 116.62 20.1793 116.62 17.3903C116.62 14.6012 118.216 12.7637 120.625 12.7637C123.068 12.7637 124.663 14.6012 124.663 17.3903C124.663 20.1793 123.068 21.984 120.625 21.984Z" fill="white"/>
<path d="M140.339 25.9215C145.387 25.9215 149.001 22.3121 149.001 17.3903C149.001 12.4684 145.387 8.85901 140.339 8.85901C135.293 8.85901 131.678 12.4684 131.678 17.3903C131.678 22.3121 135.293 25.9215 140.339 25.9215ZM140.339 21.984C137.897 21.984 136.236 20.1137 136.236 17.3903C136.236 14.634 137.897 12.7637 140.339 12.7637C142.781 12.7637 144.442 14.634 144.442 17.3903C144.442 20.1137 142.781 21.984 140.339 21.984Z" fill="white"/>
<path d="M156.036 25.659V16.6028C156.036 14.4699 157.436 12.9278 159.422 12.9278C161.31 12.9278 162.579 14.3715 162.579 16.3731V25.659H167.138V15.3559C167.138 11.5496 164.729 8.85901 161.016 8.85901C158.77 8.85901 156.947 9.81057 156.036 11.4184V9.12151H151.477V25.659H156.036Z" fill="white"/>
</g>
<defs>
<clipPath id="clip0_1031_5675">
<rect width="167.344" height="35" fill="white" transform="translate(0.65625 0.5)"/>
</clipPath>
</defs>
</svg>
