<svg width="106" height="20" viewBox="0 0 106 20" fill="none" xmlns="http://www.w3.org/2000/svg">
<g id="Frame" clip-path="url(#clip0_1972_9026)">
<path id="Vector" d="M35.9101 10.9537H39.9029C40.4637 10.9537 40.9184 11.4163 40.9184 11.9871C40.9184 12.5578 40.4637 13.0205 39.9029 13.0205H35.0868C35.0118 13.0205 34.9391 13.0479 34.882 13.0978L33.4277 14.3635C33.205 14.5572 33.3396 14.9284 33.6326 14.9284H39.6617C39.6617 14.9284 39.6661 14.9264 39.6661 14.924C39.6661 14.921 39.6685 14.9191 39.6709 14.9196C39.747 14.9254 39.8235 14.9288 39.901 14.9288C41.5005 14.9288 42.7969 13.6123 42.7969 11.9876C42.7969 10.3629 41.6279 9.17983 40.1402 9.05659C40.1378 9.05659 40.1358 9.05414 40.1358 9.0517C40.1358 9.04876 40.1339 9.04681 40.131 9.04681H35.8292C35.2684 9.04681 34.8137 8.58415 34.8137 8.01341C34.8137 7.44266 35.2684 6.98 35.8292 6.98H40.639C40.7179 6.98 40.7945 6.94968 40.8526 6.89539L42.2027 5.62968C42.4143 5.43161 42.2763 5.07263 41.9891 5.07263H35.9101C35.9101 5.07263 35.9096 5.07263 35.9096 5.07312C35.9096 5.07361 35.9096 5.07361 35.9091 5.07361C35.8835 5.07312 35.8573 5.07263 35.8312 5.07263C34.2321 5.07263 32.9352 6.38921 32.9352 8.01341C32.9352 9.6376 34.2316 10.9547 35.8312 10.9547C35.8573 10.9547 35.883 10.9547 35.9091 10.9537C35.9091 10.9537 35.9096 10.9537 35.9096 10.9542C35.9096 10.9547 35.9096 10.9547 35.9101 10.9547V10.9537Z" fill="#1E1E2C"/>
<path id="Vector_2" d="M59.1667 5.07166C58.9919 5.07166 58.8505 5.21544 58.8505 5.39248V14.607C58.8505 14.7841 58.9919 14.9279 59.1667 14.9279H66.4782C66.5654 14.9279 66.6492 14.8912 66.7087 14.8266L67.624 13.8353C67.8133 13.6304 67.67 13.2949 67.3935 13.2949H61.0093C60.835 13.2949 60.6936 13.1511 60.6936 12.974V5.39248C60.6936 5.21544 60.5517 5.07166 60.3774 5.07166H59.1667Z" fill="#1E1E2C"/>
<path id="Vector_3" fill-rule="evenodd" clip-rule="evenodd" d="M47.4561 5.07166C47.4561 5.07166 47.4551 5.07166 47.4551 5.07263C47.4551 5.07263 47.4546 5.07361 47.4541 5.07361C46.5195 5.11469 45.7694 5.87422 45.7287 6.81959L45.7282 6.82057C45.7277 6.82057 45.7277 6.82057 45.7272 6.82057V13.0195L45.7277 13.0205C45.7282 13.0205 45.7287 13.0205 45.7287 13.0215C45.7277 13.0474 45.7272 13.0738 45.7272 13.1002C45.7272 14.0832 46.4933 14.8848 47.4541 14.9269C47.4546 14.9269 47.4551 14.9269 47.4551 14.9279C47.4551 14.9279 47.4556 14.9288 47.4561 14.9288H54.0901C54.0901 14.9288 54.0911 14.9288 54.0911 14.9279H54.0915V14.9269H54.092C55.0528 14.8848 55.8189 14.0832 55.8189 13.1002C55.8189 13.0738 55.8185 13.0479 55.8175 13.0215C55.8175 13.0215 55.8175 13.0205 55.8185 13.0205C55.8185 13.0205 55.8189 13.0205 55.8189 13.0195V6.82106C55.8189 6.82106 55.8185 6.82008 55.818 6.82008C55.8175 6.82008 55.818 6.82008 55.818 6.8191C55.7773 5.87324 55.0272 5.11372 54.0925 5.07312C54.092 5.07312 54.0915 5.07312 54.0915 5.07214C54.0915 5.07214 54.0911 5.07117 54.0906 5.07117H47.4566L47.4561 5.07166ZM48.6924 6.82057H48.6919C48.6919 6.82057 48.6919 6.82155 48.6915 6.82155C48.1074 6.84747 47.6382 7.3248 47.613 7.92C47.613 7.92 47.613 7.92048 47.6125 7.92048C47.6125 7.92048 47.612 7.92048 47.612 7.92097V11.8198L47.6125 11.8203C47.613 11.8203 47.613 11.8203 47.613 11.8208C47.6125 11.837 47.612 11.8536 47.612 11.8702C47.612 12.4884 48.091 12.9926 48.6915 13.019C48.6919 13.019 48.6919 13.019 48.6919 13.0195H52.8542C52.8542 13.0195 52.8542 13.019 52.8547 13.019C53.4552 12.9926 53.9342 12.4884 53.9342 11.8702C53.9342 11.8536 53.9337 11.837 53.9332 11.8208H53.9337L53.9342 11.8198V7.92097L53.9337 7.92048C53.9332 7.92048 53.9332 7.92048 53.9332 7.92C53.908 7.3248 53.4388 6.84747 52.8547 6.82155C52.8542 6.82155 52.8542 6.82155 52.8542 6.82106H48.6924V6.82057Z" fill="#1E1E2C"/>
<path id="Vector_4" fill-rule="evenodd" clip-rule="evenodd" d="M78.2561 14.607C78.2561 14.7841 78.3966 14.9279 78.5695 14.9279H79.8097C79.9826 14.9279 80.123 14.7841 80.123 14.607V6.98001C80.123 6.98001 80.1225 6.97903 80.122 6.97903H80.1216V6.97805C80.1225 6.95213 80.123 6.92572 80.123 6.89931C80.123 5.91677 79.3642 5.11469 78.4126 5.07264C78.4121 5.07264 78.4116 5.07263 78.4116 5.07166C78.4116 5.07166 78.4111 5.07068 78.4106 5.07068H72.0415C72.0415 5.07068 72.0405 5.07068 72.0405 5.07166C72.0405 5.07215 72.04 5.07264 72.0396 5.07264C72.0144 5.07166 71.9887 5.07117 71.9631 5.07117C70.9747 5.07117 70.1737 5.88987 70.1737 6.89931C70.1737 6.92572 70.1742 6.95213 70.1751 6.97805C70.1751 6.97805 70.1751 6.97903 70.1746 6.97903C70.1742 6.97903 70.1737 6.97903 70.1737 6.98001V14.607C70.1737 14.7841 70.3141 14.9279 70.487 14.9279H71.7272C71.9001 14.9279 72.0405 14.7841 72.0405 14.607V11.4335C72.0405 11.2564 72.181 11.1126 72.3543 11.1126H77.9423C78.1157 11.1126 78.2561 11.2564 78.2561 11.4335V14.607ZM72.0405 9.36079V7.77425C72.0405 7.15949 72.5282 6.66162 73.1297 6.66162H77.167C77.7685 6.66162 78.2561 7.15998 78.2561 7.77425V9.36079C78.2561 9.53784 78.1157 9.68162 77.9423 9.68162H72.3543C72.181 9.68162 72.0405 9.53784 72.0405 9.36079Z" fill="#1E1E2C"/>
<path id="Vector_5" fill-rule="evenodd" clip-rule="evenodd" d="M104.431 14.9284C104.257 14.9284 104.115 14.7846 104.115 14.6075V11.434C104.115 11.2569 103.973 11.1131 103.798 11.1131H98.148C97.9732 11.1131 97.8318 11.2569 97.8318 11.434V14.6075C97.8318 14.7846 97.6899 14.9284 97.5151 14.9284H96.2632C96.0884 14.9284 95.9465 14.7846 95.9465 14.6075V6.98001H95.947L95.9475 6.97903C95.948 6.97903 95.9485 6.97903 95.9485 6.97805C95.9475 6.95213 95.9465 6.92572 95.9465 6.89931C95.9465 5.88987 96.7553 5.07117 97.7533 5.07117C97.779 5.07117 97.8052 5.07166 97.8308 5.07264C97.8313 5.07264 97.8318 5.07263 97.8318 5.07166L97.8323 5.07068H104.271C104.271 5.07068 104.272 5.07068 104.272 5.07166C104.272 5.07166 104.272 5.07264 104.273 5.07264C105.233 5.11469 106 5.91628 106 6.89931C106 6.92572 105.999 6.95213 105.998 6.97805C105.998 6.97805 105.999 6.97903 105.999 6.97903H106C106 6.97903 106 6.97903 106 6.97952V14.6066C106 14.7836 105.858 14.9274 105.683 14.9274H104.431V14.9284ZM97.8318 7.77474V9.36128C97.8318 9.53833 97.9732 9.68211 98.148 9.68211H103.798C103.973 9.68211 104.115 9.53833 104.115 9.36128V7.77474C104.115 7.15998 103.623 6.66211 103.015 6.66211H98.9311C98.3238 6.66211 97.8318 7.16047 97.8318 7.77474Z" fill="#1E1E2C"/>
<path id="Vector_6" d="M84.7904 5.07166C84.8824 5.07166 84.9696 5.11274 85.0292 5.18414L90.5905 11.8795C90.7794 12.1064 91.1426 11.9695 91.1426 11.6712V5.39249C91.1426 5.21544 91.2825 5.07166 91.4559 5.07166H92.6961C92.869 5.07166 93.0095 5.21544 93.0095 5.39249V14.607C93.0095 14.7841 92.869 14.9279 92.6961 14.9279H91.1542C91.1474 14.9279 91.1426 14.9225 91.1426 14.9161C91.1426 14.9132 91.1411 14.9103 91.1397 14.9083L85.4849 8.2599C85.2941 8.03639 84.9352 8.17431 84.9352 8.47118V14.6075C84.9352 14.7846 84.7948 14.9284 84.6219 14.9284H83.3734C83.2006 14.9284 83.0601 14.7846 83.0601 14.6075V5.39249C83.0601 5.21544 83.2006 5.07166 83.3734 5.07166H84.7904Z" fill="#1E1E2C"/>
<path id="Vector_7" d="M4.10661 15.2672C4.26109 15.1112 4.47078 15.0237 4.68967 15.0237H24.8576C25.2252 15.0237 25.4087 15.4722 25.1491 15.7348L21.1641 19.7564C21.0096 19.9124 20.7999 20 20.581 20H0.413082C0.0455207 20 -0.138018 19.5515 0.121551 19.2889L4.10661 15.2672Z" fill="url(#paint0_linear_1972_9026)"/>
<path id="Vector_8" d="M4.10632 0.243556C4.2608 0.0875434 4.47049 0 4.68938 0H24.8573C25.2249 0 25.4084 0.448477 25.1488 0.711107L21.1638 4.73272C21.0093 4.88874 20.7996 4.97628 20.5807 4.97628H0.412792C0.0452308 4.97628 -0.138308 4.5278 0.121261 4.26517L4.10632 0.243556Z" fill="url(#paint1_linear_1972_9026)"/>
<path id="Vector_9" d="M21.1641 7.70779C21.0096 7.55178 20.7999 7.46423 20.581 7.46423H0.413082C0.0455207 7.46423 -0.138018 7.91271 0.121551 8.17534L4.10661 12.197C4.26109 12.353 4.47078 12.4405 4.68967 12.4405H24.8576C25.2252 12.4405 25.4087 11.992 25.1491 11.7294L21.1641 7.70779Z" fill="url(#paint2_linear_1972_9026)"/>
</g>
<defs>
<linearGradient id="paint0_linear_1972_9026" x1="22.9307" y1="-2.40381" x2="8.75551" y2="24.4815" gradientUnits="userSpaceOnUse">
<stop stop-color="#00FFA3"/>
<stop offset="1" stop-color="#DC1FFF"/>
</linearGradient>
<linearGradient id="paint1_linear_1972_9026" x1="16.8271" y1="-5.62185" x2="2.65197" y2="21.2635" gradientUnits="userSpaceOnUse">
<stop stop-color="#00FFA3"/>
<stop offset="1" stop-color="#DC1FFF"/>
</linearGradient>
<linearGradient id="paint2_linear_1972_9026" x1="19.8599" y1="-4.02303" x2="5.68427" y2="22.8623" gradientUnits="userSpaceOnUse">
<stop stop-color="#00FFA3"/>
<stop offset="1" stop-color="#DC1FFF"/>
</linearGradient>
<clipPath id="clip0_1972_9026">
<rect width="106" height="20" fill="white"/>
</clipPath>
</defs>
</svg>
