<svg width="101" height="33" viewBox="0 0 101 33" fill="none" xmlns="http://www.w3.org/2000/svg">
<g id="Tether_Logo 1">
<path id="Vector" d="M14.4179 30.5844C21.8474 30.5844 27.8702 24.4167 27.8702 16.8086C27.8702 9.20037 21.8474 3.03271 14.4179 3.03271C6.98844 3.03271 0.965668 9.20037 0.965668 16.8086C0.965668 24.4167 6.98844 30.5844 14.4179 30.5844Z" fill="#26A17B"/>
<g id="Group">
<path id="Vector_2" d="M15.8518 18.0798V18.0776C15.7588 18.0842 15.2787 18.113 14.2103 18.113C13.356 18.113 12.7569 18.0886 12.545 18.0776V18.0798C9.25977 17.9314 6.80939 17.3467 6.80939 16.6446C6.80939 15.9447 9.26193 15.3578 12.545 15.2094V17.4973C12.7591 17.5128 13.3755 17.5504 14.2254 17.5504C15.2462 17.5504 15.7566 17.5061 15.8518 17.4973V15.2116C19.1305 15.3622 21.5744 15.9469 21.5744 16.6468C21.5744 17.3467 19.1284 17.9314 15.8518 18.082M15.8518 14.9747V12.9282H20.426V9.80762H7.97294V12.9282H12.5471V14.9747C8.82939 15.1496 6.03513 15.9027 6.03513 16.8063C6.03513 17.7099 8.83155 18.4629 12.5471 18.6401V25.2002H15.854V18.6401C19.5652 18.4651 22.3552 17.7121 22.3552 16.8085C22.3552 15.9071 19.5652 15.1518 15.854 14.9769" fill="white"/>
</g>
<path id="Vector_3" d="M39.297 10.6604V13.9692H42.4373V16.452H39.2754V21.4861C39.2754 22.5979 39.8745 23.1406 40.7525 23.1406C41.1916 23.1406 41.6998 22.9988 42.1151 22.7862L42.9001 25.2446C42.0934 25.5746 41.423 25.7163 40.5687 25.7407C38.0988 25.8359 36.4833 24.3941 36.4833 21.4861V16.452H34.3595V13.9692H36.4833V10.9682L39.297 10.6604ZM93.4369 13.8142L93.6445 15.1608C94.5226 13.719 95.6991 13.5063 96.854 13.5063C98.0306 13.5063 99.1617 13.9781 99.7845 14.6159L98.515 17.1208C97.9376 16.6247 97.4077 16.3634 96.4842 16.3634C95.007 16.3634 93.6445 17.1673 93.6445 19.3179V25.4638H90.8286V13.8098L93.4369 13.8142ZM86.5356 18.2814C86.3518 16.7687 85.1968 16.0112 83.5813 16.0112C82.0587 16.0112 80.8108 16.7687 80.3956 18.2814H86.5356ZM80.3501 20.6689C80.534 22.1107 81.7581 23.1516 83.7435 23.1516C84.7816 23.1516 86.1441 22.7485 86.7908 22.0642L88.5902 23.8847C87.3899 25.1604 85.4283 25.7761 83.6959 25.7761C79.7727 25.7761 77.4391 23.2934 77.4391 19.5593C77.4391 16.0134 79.7943 13.4598 83.4883 13.4598C87.2969 13.4598 89.6759 15.8717 89.2368 20.6689H80.3501ZM67.9317 8.91956V15.3955C68.9482 14.049 70.1939 13.6459 71.4872 13.6459C74.7184 13.6459 76.1501 15.8916 76.1501 19.3201V25.4661H73.3342V19.3445C73.3342 17.2161 72.2485 16.3191 70.7476 16.3191C69.0844 16.3191 67.9317 17.7609 67.9317 19.5106V25.4683H65.1158V8.92177L67.9317 8.91956ZM60.4529 10.5275V13.8363H63.5932V16.3191H60.4313V21.3532C60.4313 22.4651 61.0325 23.0077 61.9085 23.0077C62.3475 23.0077 62.8557 22.8659 63.271 22.6533L64.0561 25.1117C63.2494 25.4417 62.5789 25.5834 61.7246 25.6078C59.2548 25.703 57.6392 24.259 57.6392 21.3532V16.3191H55.5154V13.8363H57.6392V10.8353L60.4529 10.5275ZM52.6736 18.2814C52.4897 16.7687 51.3348 16.0112 49.7193 16.0112C48.1967 16.0112 46.9488 16.7687 46.5335 18.2814H52.6736ZM46.4881 20.6689C46.6719 22.1107 47.8961 23.1516 49.8815 23.1516C50.9196 23.1516 52.2821 22.7485 52.9288 22.0642L54.7282 23.8847C53.5278 25.1604 51.5662 25.7761 49.8339 25.7761C45.9085 25.7761 43.5771 23.2934 43.5771 19.5593C43.5771 16.0134 45.9323 13.4598 49.6241 13.4598C53.4327 13.4598 55.8095 15.8717 55.3727 20.6689H46.4881Z" fill="#1E1E2C"/>
</g>
</svg>
