<svg width="116" height="28" viewBox="0 0 116 28" fill="none" xmlns="http://www.w3.org/2000/svg">
<g id="Frame 4145">
<path id="Vector" fill-rule="evenodd" clip-rule="evenodd" d="M0 10.4118C0 13.5353 1.68647 16.389 4.29294 18.2785C4.52297 18.4327 4.63788 18.6641 4.63788 18.9726C4.63788 19.0497 4.59958 19.1654 4.59958 19.2425C4.40796 20.0137 4.06292 21.2863 4.02462 21.3249C3.98631 21.4405 3.94801 21.5177 3.94801 21.6333C3.94801 21.8648 4.13963 22.0575 4.36965 22.0575C4.44626 22.0575 4.52297 22.019 4.59958 21.9804L7.32106 20.3994C7.51258 20.2837 7.7426 20.2065 7.97263 20.2065C8.08764 20.2065 8.24095 20.2065 8.35597 20.2451C9.6208 20.6308 11.0006 20.8235 12.4189 20.8235C19.2799 20.8235 24.8378 16.1575 24.8378 10.4118C24.8378 4.66603 19.2799 0 12.4189 0C5.55788 0 0 4.66603 0 10.4118Z" fill="url(#paint0_linear_1972_9115)"/>
<path id="Vector_2" fill-rule="evenodd" clip-rule="evenodd" d="M23.9899 26.951C25.1752 26.951 26.3224 26.7956 27.3548 26.4848C27.4313 26.4459 27.546 26.4459 27.6607 26.4459C27.8519 26.4459 28.0431 26.5237 28.1961 26.6013L30.452 27.9224C30.5285 27.9611 30.5667 28 30.6432 28C30.6886 28.0001 30.7336 27.991 30.7755 27.9734C30.8174 27.9558 30.8555 27.9301 30.8874 27.8975C30.9194 27.865 30.9447 27.8265 30.9619 27.784C30.979 27.7416 30.9877 27.6961 30.9874 27.6503C30.9874 27.5727 30.9492 27.4949 30.9492 27.3784C30.9492 27.3395 30.6432 26.2906 30.4903 25.6301C30.452 25.5523 30.452 25.4747 30.452 25.3969C30.452 25.1639 30.5667 24.9696 30.758 24.8142C32.9375 23.2212 34.314 20.8513 34.314 18.2093C34.314 13.3917 29.6873 9.46765 23.9899 9.46765C18.2925 9.46765 13.6658 13.3528 13.6658 18.2093C13.6658 23.027 18.2925 26.951 23.9899 26.951Z" fill="url(#paint1_linear_1972_9115)"/>
<path id="Vector_3" fill-rule="evenodd" clip-rule="evenodd" d="M9.87523 7.05035C9.87523 7.94978 9.17 8.66186 8.27923 8.66186C7.38846 8.66186 6.68323 7.94978 6.68323 7.05035C6.68323 6.15093 7.38846 5.43884 8.27923 5.43884C9.17 5.43884 9.87523 6.15093 9.87523 7.05035ZM18.1545 7.05035C18.1545 7.94978 17.4493 8.66186 16.5585 8.66186C15.6677 8.66186 14.9625 7.94978 14.9625 7.05035C14.9625 6.15093 15.6677 5.43884 16.5585 5.43884C17.4493 5.43884 18.1545 6.15093 18.1545 7.05035Z" fill="#187E28"/>
<path id="Vector_4" fill-rule="evenodd" clip-rule="evenodd" d="M26.1346 15.5108C26.1346 16.2942 26.7552 16.9209 27.5311 16.9209C28.3069 16.9209 28.9276 16.2942 28.9276 15.5108C28.9276 14.7274 28.3069 14.1007 27.5311 14.1007C26.7552 14.1007 26.1346 14.7274 26.1346 15.5108ZM19.2518 15.5108C19.2518 16.2942 19.8725 16.9209 20.6483 16.9209C21.4242 16.9209 22.0448 16.2942 22.0448 15.5108C22.0448 14.7274 21.4242 14.1007 20.6483 14.1007C19.8725 14.1007 19.2518 14.7274 19.2518 15.5108Z" fill="#858C8C"/>
<path id="Vector_5" fill-rule="evenodd" clip-rule="evenodd" d="M61.3095 4.94092H59.9389C59.9389 4.94092 56.9205 15.3788 56.8085 15.7783C56.3613 17.3735 55.972 18.7624 55.6756 20.167C55.3925 18.5089 54.8822 16.5389 54.3401 14.4977L51.8422 4.99329L51.8286 4.94092H50.5734L47.8115 14.5709C47.1562 16.7255 46.5886 18.6428 46.3018 20.1773C46.017 18.8244 45.5976 17.1552 45.154 15.393L42.5006 4.9937L42.4874 4.94092H41.1191L45.5876 22.0203L45.6012 22.073H46.8312L49.7182 12.2418C50.4395 9.8392 50.8947 8.21601 51.1703 6.75256C51.4107 8.32307 51.8195 9.97517 52.4308 12.2389L54.9673 22.073H56.2224L61.2826 5.03126L61.3095 4.94092ZM62.5191 14.7977C62.7727 12.8908 63.9491 10.704 66.4607 10.704C67.4614 10.704 68.2709 11.0132 68.8662 11.6227C69.8481 12.6289 69.965 14.1295 69.9634 14.7977H62.5191ZM66.6103 9.55427C63.3418 9.55427 61.1461 12.2163 61.1461 16.1791C61.1461 19.8548 63.4227 22.3245 66.8105 22.3245C68.9735 22.3245 70.1922 21.7722 70.6154 21.5346L70.6776 21.4999L70.1263 20.5364L70.0687 20.5627C69.434 20.8535 68.5685 21.1505 66.9602 21.1505C65.6134 21.1505 62.49 20.6372 62.4593 15.8963H71.2869L71.2994 15.8411C71.3507 15.6068 71.3507 15.4252 71.3507 15.0947C71.3507 14.6404 71.2878 13.0497 70.4761 11.6717C69.6483 10.2668 68.348 9.55427 66.6103 9.55427ZM112.724 7.15987H111.385V9.83155H109.362V10.9556H111.385V18.5234C111.385 19.9137 111.636 20.8772 112.149 21.4658C112.598 22.044 113.325 22.3499 114.252 22.3499C114.919 22.3499 115.537 22.1796 116 21.975L115.492 21.0738C115.197 21.1345 114.782 21.2031 114.387 21.2031C113.257 21.2031 112.724 20.3822 112.724 18.7502V10.9556H115.843V9.83155H112.724V7.15987ZM85.0812 20.4779C84.1013 20.9049 82.8121 21.1502 81.5445 21.1502C77.1312 21.1502 74.4965 18.34 74.4965 13.633C74.4965 8.75194 77.2057 5.83843 81.7443 5.83843C82.9662 5.83843 84.1398 6.06898 85.0497 6.48777L85.1069 6.51456L85.7096 5.46234L85.647 5.42759C85.3228 5.24811 84.0817 4.66414 81.7195 4.66414C76.5687 4.66414 73.1078 8.25821 73.1078 13.6079C73.1078 20.0419 77.4375 22.3245 81.1449 22.3245C83.722 22.3245 85.2428 21.6899 85.6478 21.4954L85.7159 21.4627L85.1384 20.4527L85.0812 20.4779ZM101.062 16.8394C101.919 15.9985 103.496 15.5734 105.752 15.5734C105.911 15.5734 106.074 15.5756 106.24 15.5797V18.1075C106.24 18.2912 106.219 18.5622 106.118 18.8158C105.733 19.9625 104.615 21.1879 102.638 21.1879C100.92 21.1879 100.31 19.8679 100.31 18.738C100.31 17.9678 100.563 17.3289 101.062 16.8394ZM107.606 20.4394C107.587 20.0387 107.578 19.6057 107.578 19.1158V14.3769C107.578 11.2141 106.12 9.54238 103.363 9.54238C102.117 9.54238 100.737 9.9653 99.7538 10.6196L100.186 11.6366C100.986 11.0597 102.115 10.6911 103.238 10.6911C104.158 10.6907 104.873 10.9321 105.371 11.4308C105.956 12.0156 106.24 12.9135 106.24 14.1757V14.4317C106.191 14.4317 106.143 14.4313 106.094 14.4313C103.231 14.4313 101.184 15.0266 100.008 16.2018C99.2875 16.9218 98.9219 17.8426 98.9219 18.94C98.9219 20.5763 100.046 22.3376 102.514 22.3376C104.29 22.3376 105.599 21.4096 106.28 20.4876C106.321 21.2787 106.58 22.0602 106.58 22.0602L108.029 22.0582C108.029 22.0582 107.695 21.3703 107.606 20.4394ZM92.9239 9.55427C92.0376 9.55427 91.1875 9.80234 90.4666 10.2697C89.8423 10.6294 89.2781 11.2126 88.8981 11.8858V4.66394H87.5595V22.073H88.8981V14.616C88.8981 14.1219 88.9208 13.8027 89.0439 13.4295C89.599 11.8544 91.0615 10.7541 92.6001 10.7541C93.8047 10.7541 95.8263 11.2854 95.8263 14.8436V22.073H97.1648V14.7168C97.1648 9.80315 93.6323 9.55427 92.9239 9.55427Z" fill="#959595"/>
</g>
<defs>
<linearGradient id="paint0_linear_1972_9115" x1="12.4327" y1="20.7674" x2="12.4327" y2="0.0962512" gradientUnits="userSpaceOnUse">
<stop stop-color="#78D431"/>
<stop offset="1" stop-color="#9EEE69"/>
</linearGradient>
<linearGradient id="paint1_linear_1972_9115" x1="24.0083" y1="26.8017" x2="24.0083" y2="9.46091" gradientUnits="userSpaceOnUse">
<stop stop-color="#E4E6E6"/>
<stop offset="1" stop-color="#F5F5FF"/>
</linearGradient>
</defs>
</svg>
