<svg xmlns="http://www.w3.org/2000/svg" width="66" height="60" viewBox="0 0 66 60" fill="none">
  <path fill-rule="evenodd" clip-rule="evenodd" d="M10.4668 40.9219C23.9831 40.9219 34.9336 29.9628 34.9336 16.4522C34.9336 10.4738 32.7894 4.99493 29.2276 0.744164C31.3688 0.257159 33.5974 0 35.886 0C52.4022 0 65.7912 13.3927 65.7912 29.9134C65.7912 46.4342 52.4022 59.8268 35.886 59.8268C23.2103 59.8268 12.3765 51.9383 8.02358 40.8014C8.82717 40.8811 9.64222 40.9219 10.4668 40.9219ZM6.23069 26.029C7.17854 18.7172 10.7659 12.234 16.0054 7.56675C18.9649 9.4164 20.9336 12.7043 20.9336 16.4522C20.9336 22.2345 16.2475 26.9219 10.4668 26.9219C8.95907 26.9219 7.52579 26.603 6.23069 26.029Z" fill="url(#paint0_linear_20_44)"/>
  <ellipse cx="10.4668" cy="16.4522" rx="10.4668" ry="10.4697" fill="url(#paint1_linear_20_44)"/>
  <defs>
    <linearGradient id="paint0_linear_20_44" x1="65.7912" y1="59.8268" x2="2.62249" y2="55.7376" gradientUnits="userSpaceOnUse">
      <stop stop-color="#FC4B2C"/>
      <stop offset="1" stop-color="#FFB60E"/>
    </linearGradient>
    <linearGradient id="paint1_linear_20_44" x1="20.9336" y1="26.9219" x2="-1.26739" y2="25.4787" gradientUnits="userSpaceOnUse">
      <stop stop-color="#FC4B2C"/>
      <stop offset="1" stop-color="#FFB60E"/>
    </linearGradient>
  </defs>
</svg>